<svg xmlns="http://www.w3.org/2000/svg" viewBox="0 0 91 91"><defs><style>.cls-1{fill:#f3d333;}</style></defs><title>Recurso 1</title><g id="Capa_2" data-name="Capa 2"><g id="Capa_1-2" data-name="Capa 1"><rect class="cls-1" width="91" height="91" rx="45.5"/><path d="M26.53,21.82A31,31,0,0,1,66.78,20.1a2.35,2.35,0,0,1,1.49-.68,1.53,1.53,0,0,1,.77.21,32.76,32.76,0,0,0-43.82.95A7.34,7.34,0,0,1,26.53,21.82Z"/><path d="M69.81,20.32l-.1-.09.09.1Z"/><path d="M69.54,66.31a30.77,30.77,0,0,1-21.88,9.06c-.43,0-.86,0-1.28,0a8.07,8.07,0,0,1-1.22,1.73c.82.07,1.66.1,2.5.1A32.74,32.74,0,0,0,76.23,60.42a8.51,8.51,0,0,1-1.66-.69A31.15,31.15,0,0,1,69.54,66.31Z"/><path d="M47.66,73.61H47a7,7,0,0,1-.28.89h.9A30.08,30.08,0,0,0,73.84,59.26a6.33,6.33,0,0,1-.71-.57A29.23,29.23,0,0,1,47.66,73.61Z"/><path d="M53.78,15.84a.91.91,0,0,1,.32.06l.25.11A29.14,29.14,0,0,1,63.58,20H64a2.4,2.4,0,0,1,1.83.77A1.39,1.39,0,0,1,66,21a1.11,1.11,0,0,1,.14-.29A30.07,30.07,0,0,0,27,22.52a6.94,6.94,0,0,1,.46.8,29,29,0,0,1,20.16-8.08,29.56,29.56,0,0,1,6,.61Z"/><path d="M9.68,44.2c0,1.91.6,2.79,2.59,3.58a36.33,36.33,0,0,1,4.16,2,8.29,8.29,0,0,1,1.49,1.14c.2.18.41.37.63.54l-.2.3a4.57,4.57,0,0,0-2.17-.55,4.17,4.17,0,0,0-2.22.63,3.65,3.65,0,0,0-1.74,3.28A6.46,6.46,0,0,0,16,60.68a6.53,6.53,0,0,0,7.14-1.47,8.58,8.58,0,0,0,2-7.9,10.46,10.46,0,0,0-6.29-7.53,10.06,10.06,0,0,0-5.86-.5l.15.14c1.14,1,2.12,1.91,3.77,2a7.21,7.21,0,0,1,5.7,3.13l.13.18-1.83.86a4,4,0,0,1,2.53,2.84,7.12,7.12,0,0,1-.55,4.82,4.64,4.64,0,0,1-3.46,2.59A5.06,5.06,0,0,1,15,58.52a4.41,4.41,0,0,1-1.37-3.85,2.62,2.62,0,0,1,2.14-2.3,2.21,2.21,0,0,1,2.54.91l.07.11-.08.1-.2.26-.3.37a1.29,1.29,0,0,0-.24,1,1.45,1.45,0,0,0,.76.89,1.39,1.39,0,0,0,1.14.09,1.18,1.18,0,0,0,.68-.72,4.9,4.9,0,0,0-.87-4.81A32.93,32.93,0,0,0,15,46.11l-1.13-1a17.49,17.49,0,0,1-4.54-5A12.24,12.24,0,0,1,8.12,36a3.35,3.35,0,0,1,2.42-3.56l.16,0,.18-.05-.49.12a3.93,3.93,0,0,0-2.68,3A9,9,0,0,0,9.2,42.6,3,3,0,0,1,9.68,44.2Z"/><path d="M12.08,33.23a.75.75,0,0,0,.33.44.79.79,0,0,0,.31-.14.84.84,0,0,0-.17-.55,1.74,1.74,0,0,0-.85-.57l0,0A.94.94,0,0,1,12.08,33.23Z"/><path d="M58.35,46.75a1.14,1.14,0,0,0-2.06-.37c-.31.34-.4.59,0,.91,1,.82,1.1,2,.36,3.27a2.57,2.57,0,0,1-2.46,1.36c-.74-.2-1.14-1-1-2.19a5.12,5.12,0,0,1,.17-.95,9.63,9.63,0,0,1,3.8-5.37c.73-.49,1.23-1,1.06-1.71,0-.57.15-1-.08-1.34A3.34,3.34,0,0,0,53,39.85a19.09,19.09,0,0,0-2,2.15.77.77,0,0,0-.16.81,6,6,0,0,1,0,3.55,1.18,1.18,0,0,0,0,.59,5.94,5.94,0,0,1,0,3.47.86.86,0,0,0,.26,1,3.88,3.88,0,0,0,4.77.61,8.16,8.16,0,0,1,1.48-.59c.45-.12,1.17-.12.47-.88-.19-.21.07-.49.17-.73A4.7,4.7,0,0,0,58.35,46.75Zm-5.16-5.5A1.91,1.91,0,0,1,55,39.44c.79,0,1.22.53,1.25,1.65a2.09,2.09,0,0,0,0,.25A3.58,3.58,0,0,1,55,44.83a8.45,8.45,0,0,0-1.62,2.48l-.18-.07C53.17,45.25,53.11,43.25,53.19,41.25Z"/><path d="M72.62,37.5a3.36,3.36,0,0,0-5.09-.5,17.9,17.9,0,0,0-2,2.12.75.75,0,0,0-.16.8,6,6,0,0,1,0,3.52,1,1,0,0,0,0,.58,5.81,5.81,0,0,1,0,3.43.86.86,0,0,0,.27,1,3.9,3.9,0,0,0,4.76.6,8.21,8.21,0,0,1,1.49-.58c.45-.12,1.16-.12.47-.88-.2-.21.06-.48.16-.71A5.12,5.12,0,0,0,73,45.13l.32-.12a3.44,3.44,0,0,1,1.28-.34h0a11.19,11.19,0,0,1,8.22,3.48,3.78,3.78,0,0,1,1.09,3.35l.26-.26a5.34,5.34,0,0,0-1.55-4.47,13.68,13.68,0,0,0-5.31-3.56c-.39-.16-.8-.31-1.18-.45-.63-.23-1.28-.46-1.9-.74a2.8,2.8,0,0,1-1.69-1.61,1.75,1.75,0,0,0-.09.8A11.17,11.17,0,0,0,73,42.93c.11.26.21.53.31.82l0,.1-.07.08a4.74,4.74,0,0,0-.35.44,4.86,4.86,0,0,0-.11-.55,1.14,1.14,0,0,0-2.06-.36c-.3.33-.39.58,0,.89,1,.81,1.09,1.95.35,3.24a2.55,2.55,0,0,1-2.45,1.34c-.74-.2-1.14-1-1-2.17a4.93,4.93,0,0,1,.18-.93,9.5,9.5,0,0,1,3.8-5.32c.73-.48,1.22-.95,1.06-1.69C72.72,38.26,72.85,37.85,72.62,37.5Zm-3.13,4.42a8.11,8.11,0,0,0-1.62,2.45l-.19-.06c0-2-.05-4,0-5.93a1.9,1.9,0,0,1,1.78-1.79c.78,0,1.21.52,1.25,1.63a2.08,2.08,0,0,0,0,.25A3.52,3.52,0,0,1,69.49,41.92Z"/><path d="M70.74,33.27a4.81,4.81,0,0,0-3.82,1.34A27.68,27.68,0,0,0,65,36.85c-.63-.39-1.32-.63-1.95.13.23.38.64.7.56,1C63,40,62.3,42,61.53,44.27c-1.61-3.2-1.85-4.58-1-6.22L59,38.34a10.23,10.23,0,0,0-.92-1,4.94,4.94,0,0,0-2.72-1.15,1.67,1.67,0,0,0-.75-.19.8.8,0,0,0-.54.2.73.73,0,0,0,.08.33.79.79,0,0,0,.55,0,1.16,1.16,0,0,1,.65-.25A4.64,4.64,0,0,1,58,38.43a34.76,34.76,0,0,1,2.07,5c.07.19-.35.56-.61,1a1.66,1.66,0,0,1,1.4,2c-.08,1.36.09,2.72-.09,4.08a7.5,7.5,0,0,1-1.08,2.1c-.12.23-.21.47-.35.82a3.16,3.16,0,0,0,2.73-2.77l1.7-.25c-1.59-1.67-1.26-5.4.16-6.2a4.79,4.79,0,0,1,0-1.53,46,46,0,0,1,2.06-4.88,13.22,13.22,0,0,1,2.29-3.1,4.31,4.31,0,0,1,2.13-.78c.31,0,.68.38,1,.63,0,0-.16.43-.19.43-.36,0-.71-.11-1.28-.2,0,.31-.15.77,0,.89a1.91,1.91,0,0,0,1.32.27,1.81,1.81,0,0,0,1-.88C72.74,34.16,72,33.35,70.74,33.27Z"/><path d="M47.1,21.6v0a1,1,0,0,1,.56-1c.06,0,.1-.05.11-.07a.58.58,0,0,0-.19-.1,3.62,3.62,0,0,1-1.5-1.15l-.17-.2-.11-.11A3.05,3.05,0,0,0,44.66,18a10.43,10.43,0,0,1,.46,4.27c0,.63,0,1.29,0,1.92a.71.71,0,0,1-.16.59.55.55,0,0,1-.45.18h-.13a3.64,3.64,0,0,0-.57,0c-1.93,0-3.2,1.18-4.55,2.43l-.06.05A.56.56,0,0,0,39,28a8.21,8.21,0,0,1,.14,3.23,7.59,7.59,0,0,0,.14,3.12,1,1,0,0,1-.06.58c0,.07,0,.13-.05.18-.3,1.36-.15,1.66,1.2,2.3l.09,0h0a4.87,4.87,0,0,0,.76.23l.23,0,.48.06h.29a6.19,6.19,0,0,0,2-.41A7.26,7.26,0,0,1,46.25,37a3.25,3.25,0,0,1,.83.1l.09,0,.06,0c.15-.07.18-.13.19-.16a.19.19,0,0,0,0-.14,6.17,6.17,0,0,1-.34-3.25c0-.21,0-.43,0-.64l0-.36a26.44,26.44,0,0,0,0-3.56c-.14-1.73-.1-3.49-.07-5.2C47.09,23,47.1,22.31,47.1,21.6Zm-2,13.9a1.92,1.92,0,0,1-1.85,2.09h-.11c-.86,0-1.51-.64-1.79-1.77-.07-.26-.1-.52-.13-.68a.37.37,0,0,0,0-.12h0v0a3.62,3.62,0,0,1,.8-2.43l.12-.12c.18-.2.17-.21.11-.28s-.06,0-.07,0a.46.46,0,0,0-.2.1,1,1,0,0,1-.17.1,1.33,1.33,0,0,1-.55.13.83.83,0,0,1-.69-.36.85.85,0,0,1-.16-.6.83.83,0,0,1,.36-.56c.4-.3.43-.66.43-1.21v-.64c0-.59,0-1.2,0-1.81A2.11,2.11,0,0,1,43,25.1a3.4,3.4,0,0,1,.53,0,1.35,1.35,0,0,1,1.3.68,1.54,1.54,0,0,1-.35,2.08c-.44.35-.48.47-.48.5s0,.11.57.22.53.56.53.83c0,.49,0,1,0,1.47C45.12,32.36,45.12,33.94,45.09,35.5Z"/><path d="M48.27,33.89c-.3,1.36-.14,1.66,1.2,2.3a4.64,4.64,0,0,0,1.58.38h.29a6.6,6.6,0,0,0,2-.41,7.12,7.12,0,0,1,2.06-.42,3.23,3.23,0,0,1,.82.1l.1,0,.05,0c.15-.07.19-.13.2-.16a.2.2,0,0,0,0-.14,6.28,6.28,0,0,1-.34-3.25c0-.22,0-.43,0-.64l0-.36a26.45,26.45,0,0,0,0-3.56,50.21,50.21,0,0,1-.08-5.2c0-.23,0-.46,0-.7a2.15,2.15,0,0,1-.67-.85l.68,0c0-.2,0-.4,0-.61v0a1,1,0,0,1,.55-1,.37.37,0,0,0,.12-.07.73.73,0,0,0-.19-.1A3.53,3.53,0,0,1,55.19,18L55,17.76l-.1-.11a3.22,3.22,0,0,0-1.14-.91A10.41,10.41,0,0,1,54.23,21c0,.63,0,1.29,0,1.92a.79.79,0,0,1-.16.59.59.59,0,0,1-.46.18h-.12a3.82,3.82,0,0,0-.57,0c-1.94,0-3.21,1.18-4.56,2.43l0,.05a.55.55,0,0,0-.21.64A8,8,0,0,1,48.24,30a7.78,7.78,0,0,0,.14,3.12,1,1,0,0,1-.05.58A1.89,1.89,0,0,1,48.27,33.89Zm1.22-3.66a.83.83,0,0,1,.36-.56c.41-.3.44-.66.44-1.22,0-.21,0-.42,0-.63,0-.59,0-1.2,0-1.8a2.1,2.1,0,0,1,1.82-2.17,3.28,3.28,0,0,1,.52,0,1.35,1.35,0,0,1,1.3.68,1.55,1.55,0,0,1-.34,2.08c-.45.35-.49.47-.48.5s0,.11.57.22.53.56.53.83v1.47c0,1.52,0,3.1,0,4.66a1.92,1.92,0,0,1-1.86,2.09h-.1c-.86,0-1.52-.64-1.8-1.77-.06-.26-.1-.52-.12-.68a.74.74,0,0,1,0-.12h0v0a3.67,3.67,0,0,1,.8-2.43l.12-.12c.19-.2.17-.21.11-.28s-.06-.05-.07-.05-.12.06-.19.1l-.18.1a1.33,1.33,0,0,1-.55.13.8.8,0,0,1-.68-.36A.81.81,0,0,1,49.49,30.23Z"/><path d="M32.18,31.62a4.07,4.07,0,0,1,.38-2l-2.63.77v2.15c0,1.7,0,3.31,0,4.92s.6,2.19,2,2.19h0a6.67,6.67,0,0,0,1.25-.15,6.06,6.06,0,0,0-.35-.53,3,3,0,0,1-.68-1.44c-.11-1.46-.08-3-.06-4.4C32.17,32.61,32.18,32.11,32.18,31.62Z"/><path d="M60.12,26.84a3.94,3.94,0,0,1,.38-2l-.65.19-2,.57c0,.74,0,1.46,0,2.16,0,1.7,0,3.3,0,4.91s.6,2.19,2,2.19h0a6.66,6.66,0,0,0,1.26-.14c-.11-.18-.23-.36-.35-.54a3,3,0,0,1-.68-1.43c-.11-1.46-.09-3-.07-4.41C60.11,27.83,60.12,27.33,60.12,26.84Z"/><path d="M65.13,21.32A1.53,1.53,0,0,0,64,20.85h-.21a22.66,22.66,0,0,0-2.72.22c-.7.08-1.42.17-2.14.2h-.46c-.61,0-1.24-.05-1.84-.1l-.2,0h-.17l-.38,0a2.21,2.21,0,0,0,.37.43l.09.07.08.06a3,3,0,0,0,1.78.44l.5,0h.1l.06.1.12.23.46.88C60.12,21.43,61,21,61.61,21a1.67,1.67,0,0,1,.76.19,1.76,1.76,0,0,1,.84,2.27c0,.16-.06.31-.07.43V24l-.11,0-.73.21.85.16.14,0v.14c0,.72,0,1.46,0,2.18,0,2,.05,4-.09,6,0,.54-.57,1-1.08,1.43a5,5,0,0,0-.42.37l.57-.16c.83-.23,1.64-.51,2.42-.78l.82-.28c0-1,0-1.94,0-2.89,0-2.47,0-5,0-7.56A2.18,2.18,0,0,0,65.13,21.32Z"/><path d="M88,50.5a9.59,9.59,0,0,0-2.12-6.37,42.93,42.93,0,0,0-4-4l-.11-.1L81.59,40a2.34,2.34,0,0,1-1-1.76,5,5,0,0,1-1.77.38,2.35,2.35,0,0,1-2-1.08,2.56,2.56,0,0,1-.39-2,3,3,0,0,1,.59-1.21,3,3,0,0,1,1-.76A2.83,2.83,0,0,1,81,33.39c1.18.61,1.55,1.65,1.23,3.46l.13,0c.2,0,.43-.06.48-.14a2.69,2.69,0,0,0,.43-2.5l0-.16.16-.07c1-.38,1.44-.91,1.49-1.74a2.94,2.94,0,0,1-1.72.51,3.26,3.26,0,0,1-1-.17l-.5,0-.8-.05c-.41,0-.77-.06-1.11-.06h-.13l-.46,0v0a10.52,10.52,0,0,1-.39-2.89c0-1.27,0-2.57,0-3.82,0-1.75,0-3.57-.05-5.35,0-.66-.51-1.62-.77-1.66h-.15a4.41,4.41,0,0,0-2,.8,4.63,4.63,0,0,0-1,1c-.15.18-.3.36-.46.53l-.16.17L74,21c-.56-1.08-.87-1.6-1.28-1.6s-1.42.81-2.93,2.23l-.15.14-.11-.18c-.52-.87-.88-1.22-1.25-1.22s-.74.27-1.4.92a49,49,0,0,1,0,12.15l2.42-.48c0-.85,0-1.69,0-2.51,0-2.42,0-4.7.07-7a3,3,0,0,1,.79-1.54c.16-.22.33-.44.46-.65l.07-.12.13,0,.66.22.12,0V32.6l.82-.12,1.44-.23v-2.6c0-2.24,0-4.35,0-6.51,0-1.38.64-2.33,2.28-3.29l.26-.15V32.17l.7.45.32.21a5,5,0,0,0-2.47,2,5.07,5.07,0,0,0-.2,4.88,1.15,1.15,0,0,0,.54.5c.58.29,1.18.57,1.76.84,1,.45,2,.91,2.91,1.44a16.08,16.08,0,0,1,5.26,4.32,9.09,9.09,0,0,1,.74,1.13h0l.07.14c1.85,3.59-.15,7.67-.8,8.42A11,11,0,0,1,81.85,59a.66.66,0,0,1-.2.11l-.19.05h0a5.77,5.77,0,0,1-1.9.38l-.12,0-.22,0V59.5a7.19,7.19,0,0,1-1.73-.29l-.62-.2a4.55,4.55,0,0,1-2.37-2,4,4,0,0,1-.09-4.39l0,0h0l.28-.26,1-.88h0l.34-.17,0-.08.12-.1a4.31,4.31,0,0,1,2.65-1.18,4.65,4.65,0,0,1,2.26.71c-1.18-2-2.41-3-3.58-3a2.6,2.6,0,0,0-2.08,1.27l-.33-.17A1.67,1.67,0,0,0,75,47.06a2.58,2.58,0,0,0-1.4-1c.24.56-.13,1.34-.81,2.77l-.31.66a.61.61,0,0,0-.05.12l0,.07,0,.07,0,.07,0,.05a6.53,6.53,0,0,0-.15,6A7.29,7.29,0,0,0,78.58,60l.16,0v0h.2l.12,0h0l.06,0V60h.18a8.92,8.92,0,0,0,5.93-2.54,11,11,0,0,0,2.68-6,1.1,1.1,0,0,1,0-.87Zm-1.61-3.57a8.83,8.83,0,0,0-.84-1.19,17.52,17.52,0,0,0-2.08-2.05c-.37-.33-.75-.63-1.13-.93s-.78-.6-1.18-.89c-.8-.57-1.6-1.14-2.43-1.67a21.06,21.06,0,0,1,2.57,1.47,24.06,24.06,0,0,1,2.38,1.77,14.44,14.44,0,0,1,2.06,2.15,7.92,7.92,0,0,1,.79,1.27,4.78,4.78,0,0,1,.44,1.42A5.05,5.05,0,0,0,86.35,46.93Z"/><path d="M46,71.1c-.39-.83-1-1.28-1.69-1.1a11.54,11.54,0,0,1,.33,3.1,6.73,6.73,0,0,1-4.5,5.33A6,6,0,0,1,33.58,77c-2.36-2.21-2.83-5.06-2.42-8.12.67-4.88,3.74-7.94,7.92-10.37,0,2.84,0,5.51,0,8.18,0,1.22-.16,2.24-1.51,2.72,2.46,1.12,3.3,2.21,3.09,3.9-.16,1.26-.71,1.67-2.65,2,1.29,1.14,2.88.75,3.33-.86a6.16,6.16,0,0,0,.16-1.61q0-7.44,0-14.88c0-.29,0-.59.06-.88,1.51,0,2.24.83,2.91,2.45a47.66,47.66,0,0,0,2.39,5.3h0a10.33,10.33,0,0,0,4.22,4.38,9.85,9.85,0,0,0,9.81-.19,9.23,9.23,0,0,0,4.65-7.17A7.09,7.09,0,0,0,62,55a6.1,6.1,0,0,0-6.71.85,4,4,0,0,0-1.34,3.71,4.6,4.6,0,0,0,1,2.24c.12.14.25.29.38.42l.22.2.11.08,0,0a3.59,3.59,0,0,0,5-.49,1.38,1.38,0,0,0,.09-1.07,1.42,1.42,0,0,0-.81-.85,1.29,1.29,0,0,0-1.17,0,1.34,1.34,0,0,0-.62.92c0,.15-.06.3-.09.49s0,.22-.06.35L58,62l-.13,0a2.17,2.17,0,0,1-2.35-1.42,2.93,2.93,0,0,1,.33-3.33,4.24,4.24,0,0,1,3.8-1.6,5,5,0,0,1,3.9,2.7A5.34,5.34,0,0,1,63.9,63a7.51,7.51,0,0,1-3.28,3.83,3.79,3.79,0,0,1-3.8,0l.54,2.07c0,.61-7.58.45-9.54-6h0a14.7,14.7,0,0,1-.75-2.47c-.32-1.53-.58-3.18,1.33-4.45h-5c1.08-.9,2-1.6,2.84-2.38a12.53,12.53,0,0,0,4.31-10.8,7.14,7.14,0,0,0-3.09-5.3c-2.34.62-4.28,1.24-6.27,1.63a16,16,0,0,0-6.39,2.28,6.56,6.56,0,0,0,2.5,12c.56.1,1.15.11,2.1.2-.44.51-.65.93-1,1.13-1.21.7-2.47,1.3-3.68,2-.61.35-1.2.71-1.78,1.1a11.91,11.91,0,0,0,0-4.57,22,22,0,0,0-3.22-7.79l0-.06,1.08-4.22A3.26,3.26,0,0,1,26.42,41c-1.57-1.49-3-3.06-4.47-4.57l-1.72-1.81-.09-.09,1.21-2.15-.22-.06-.51-.15a6.37,6.37,0,0,1-5-7.19,4.75,4.75,0,0,1,5-3.8A4.57,4.57,0,0,1,25.06,25a2.9,2.9,0,0,1-.62,3,2.4,2.4,0,0,1-2.75.32,3,3,0,0,0,1.59,2.52,1.81,1.81,0,0,1,1,1.74,6.92,6.92,0,0,0,2.39,4.66,5,5,0,0,0,1.87,1,1,1,0,0,0,.83-.4,1,1,0,0,0-.22-.92c-.17-.16-.66-.15-1-.15h-.07a.91.91,0,0,0-.33.18l-.36.24-.18.11-.08-.2A9.65,9.65,0,0,1,27,29.18a10.4,10.4,0,0,1,1.7-2.55,3.53,3.53,0,0,0,1.48.27h.61l.05.1.19.35.4.76c.72-1.88,1.6-2.29,2.22-2.29a1.64,1.64,0,0,1,.75.19,1.78,1.78,0,0,1,.84,2.28c0,.16-.06.31-.07.43v.12l-.11,0-.73.21a7.35,7.35,0,0,1,.86.16l.13,0v.14c0,.72,0,1.46,0,2.18,0,2,0,4-.1,6,0,.54-.57,1-1.08,1.42l-.42.37.57-.15c.83-.24,1.64-.52,2.42-.79l.83-.28c0-1,0-1.94,0-2.88,0-2.48,0-5,.06-7.57a2.27,2.27,0,0,0-.42-1.59A1.56,1.56,0,0,0,36,25.64h-.21a22.33,22.33,0,0,0-2.72.22c-.7.08-1.43.17-2.15.2h-.45c-.39,0-.78,0-1.17,0a19.37,19.37,0,0,1,2.46-2,10.18,10.18,0,0,0-2,.33,11.86,11.86,0,0,0-1.6.64c-.24.12-.48.23-.73.33l-.18.08-.06-.18-.15-.4c-.09-.27-.18-.52-.28-.76a6.77,6.77,0,0,0-7.16-4,7.58,7.58,0,0,0-5.39,3.34,6.91,6.91,0,0,0-.73,5.81,27.55,27.55,0,0,0,1.84,4.25c.3.61.6,1.2.86,1.78l.08.16-.17.08-.53.22a5,5,0,0,0-1.45.75,8.51,8.51,0,0,0-1.4,1.69l-.33.47A1.67,1.67,0,0,0,12,39.85a1.32,1.32,0,0,0,.51.74,1.91,1.91,0,0,1,.36-1.41,2.25,2.25,0,0,1,1.77-.51,7.7,7.7,0,0,1,3.5.84,23.59,23.59,0,0,1,8.72,8.21,16.31,16.31,0,0,1,1.31,2.8c.18.46.36.92.57,1.39l.11.26-2-.09a4.4,4.4,0,0,1,1.77,3.56,9.68,9.68,0,0,1-2.3,6.8c-2.76,3.21-6.58,4.12-12,2.89-4.34-1-7.44-3.91-8.11-7.64a5.84,5.84,0,0,1,.34-3A2.14,2.14,0,0,1,7.8,53.48a2.77,2.77,0,0,1,2.17,0,2.42,2.42,0,0,1,1.25,2.92,2.6,2.6,0,0,0,.31-1.22,3,3,0,0,0-1.12-2.36l-.15-.11c-.27-.21-.57-.44-.62-.73a2.58,2.58,0,0,0-2-2.18l-.26-.09,2.18-2.57-.86-2.27L8.58,45a6.76,6.76,0,0,0-.66.39,11.12,11.12,0,0,0-4.41,6.28A11.65,11.65,0,0,0,4,59.42c2.61,6,8.73,9.59,16,9.33a13.66,13.66,0,0,0,8.06-3c0,.06,0,.11,0,.17a2.77,2.77,0,0,1,.1-.26,14.31,14.31,0,0,0,2.15-2.18,13.19,13.19,0,0,0,2.17-3.9,44.06,44.06,0,0,1,6.49-4.36,2.34,2.34,0,0,1-1.24,3.21,21.12,21.12,0,0,0-2.6,1.75,13.58,13.58,0,0,0-5.86,9.61A8.53,8.53,0,0,0,35.4,79c4.2,1.17,8.77-.81,10.4-4.51A3.94,3.94,0,0,0,46,71.1Zm-6.45-11h0c0,1,0,2,0,3.05C39.54,62.09,39.53,61.07,39.53,60.05Zm1-.37h0l0,.09Zm7.66-18.74A9.07,9.07,0,0,1,49,42.6a7.81,7.81,0,0,1,.44,1.79,8.18,8.18,0,0,1,0,1.85,9.18,9.18,0,0,1-1.13,3.5A10.34,10.34,0,0,1,46,52.55a12.37,12.37,0,0,0,2.12-2.93,9.77,9.77,0,0,0,1-3.41,8.62,8.62,0,0,0-.38-3.53,11.21,11.21,0,0,0-1.68-3.19A11.13,11.13,0,0,1,48.19,40.94ZM39,46.56c.1,2,.05,4.08.05,6.12a5.19,5.19,0,0,1-4.88-3.45,6.3,6.3,0,0,1,1.93-7.15,9.59,9.59,0,0,1,7.41-2,4.78,4.78,0,0,1,4.4,4.88,9.86,9.86,0,0,1-1.33,5.57,15.37,15.37,0,0,1-4.92,5.14,2.51,2.51,0,0,1,1.09-3.16,5.35,5.35,0,0,0,2.51-4.37c.09-1.92-1.23-3-2.85-2.18a2.11,2.11,0,0,1,1.81,2.31,4.19,4.19,0,0,1-2.74,4c.23-3.47-.39-6.89.49-10.16l-3.86,3.43C38.35,45.75,39,46.14,39,46.56ZM31.3,57.33A14.94,14.94,0,0,1,31,59.44a16.14,16.14,0,0,1-.62,2.05,13.15,13.15,0,0,1-2.13,3.68,8.53,8.53,0,0,1-1.56,1.44,5.82,5.82,0,0,1-1.91.92,6.26,6.26,0,0,0,1.86-1,8.35,8.35,0,0,0,1.5-1.47,12.66,12.66,0,0,0,2-3.67,16,16,0,0,0,.58-2A14.7,14.7,0,0,0,31,57.31a13.26,13.26,0,0,0-.28-4.17,17.41,17.41,0,0,0-1.47-3.93,26.93,26.93,0,0,0-2.21-3.58,38.23,38.23,0,0,0-2.66-3.29,40.29,40.29,0,0,0-3-3,36.13,36.13,0,0,1,5.84,6.14,26.46,26.46,0,0,1,2.28,3.61,16.55,16.55,0,0,1,1.5,4A13.57,13.57,0,0,1,31.3,57.33Z"/></g></g></svg>