<?xml version="1.0" encoding="utf-8"?>
<!-- Generator: Adobe Illustrator 27.2.0, SVG Export Plug-In . SVG Version: 6.00 Build 0)  -->
<svg version="1.1" id="Capa_1" xmlns="http://www.w3.org/2000/svg" xmlns:xlink="http://www.w3.org/1999/xlink" x="0px" y="0px"
	 viewBox="0 0 807 746" style="enable-background:new 0 0 807 746;" xml:space="preserve">
<style type="text/css">
	.st0{fill:url(#SVGID_1_);}
	.st1{fill:url(#SVGID_00000005960475471595844130000014354248491210130856_);}
	.st2{fill:url(#SVGID_00000034801638972250165200000001714100191153456560_);}
	.st3{fill:url(#SVGID_00000088849538318777360020000000994930310306927805_);}
	.st4{fill:url(#SVGID_00000046307438622693429480000003970158424550398378_);}
	.st5{fill:url(#SVGID_00000021842094926046159870000007435358147906212004_);}
	.st6{fill:url(#SVGID_00000131331832291794839490000000655140491990283937_);}
	.st7{fill:url(#SVGID_00000096058357953879998690000008242638013980217993_);}
	.st8{fill:url(#SVGID_00000106113178692018578180000007082573255061380543_);}
	.st9{fill:url(#SVGID_00000021838135982417584350000011660704818258856586_);}
	.st10{fill:url(#SVGID_00000166663245536826303640000012786890182275657651_);}
	.st11{fill:url(#SVGID_00000152952908935761887090000001809979790804014499_);}
	.st12{fill:url(#SVGID_00000147193333927574514640000009790181967752090798_);}
	.st13{fill:url(#SVGID_00000170989895732986488940000008876282513549994140_);}
	.st14{fill:url(#SVGID_00000099660137994436387210000003953069806150432173_);}
	.st15{fill:url(#SVGID_00000044873315362158288150000008344167912963474049_);}
	.st16{fill:url(#SVGID_00000073691042415879697290000006424003383414482365_);}
	.st17{fill:url(#SVGID_00000026139398423997621120000011357472828845591478_);}
	.st18{fill:url(#SVGID_00000004537010610569915040000018244865995051945402_);}
	.st19{fill:url(#SVGID_00000097494823237661347310000015201257461712762041_);}
	.st20{fill:url(#SVGID_00000018199794161250971930000003046151583765260220_);}
	.st21{fill:url(#SVGID_00000098926698866781242800000009720370322286357891_);}
	.st22{fill:url(#SVGID_00000000224117085439567190000011824798887733108616_);}
	.st23{fill:url(#SVGID_00000035499063227319110300000011438581689949763482_);}
	.st24{fill:url(#SVGID_00000126323055697649545540000016923192223942787203_);}
	.st25{fill:url(#SVGID_00000146469421733547135690000014803539351118429109_);}
	.st26{fill:url(#SVGID_00000082366381854766057190000006471002974294292103_);}
</style>
<g>
	
		<linearGradient id="SVGID_1_" gradientUnits="userSpaceOnUse" x1="268.25" y1="481.6977" x2="270.41" y2="265.6977" gradientTransform="matrix(1 0 0 -1 0 748)">
		<stop  offset="2.000000e-02" style="stop-color:#878787"/>
		<stop  offset="0.24" style="stop-color:#6E6E6E"/>
		<stop  offset="0.38" style="stop-color:#B1B1B1"/>
		<stop  offset="0.47" style="stop-color:#D7D7D7"/>
		<stop  offset="0.76" style="stop-color:#848484"/>
		<stop  offset="1" style="stop-color:#000000"/>
	</linearGradient>
	<path class="st0" d="M265.1,363.3c2.8-2.6,5.5-5.1,8.1-7.5c18.4-17.5,36.7-34.9,55.1-52.4c0.6-0.6,1.6-1.1,2.4-1.1
		c12-0.1,24,0,35.9,0c0.3,0,0.5,0.1,1,0.1c-2,6.3-3.9,12.6-5.9,18.8c-8.4,25.7-16.9,51.5-25.2,77.2c-0.6,1.8-1.4,2.4-3.3,2.3
		c-9.1-0.2-18.2-0.2-27.3-0.3c-0.5,0-1.1-0.1-1.9-0.2c6.3-19.8,12.6-39.5,18.9-59.1c-0.1-0.1-0.2-0.2-0.3-0.2
		c-0.9,0.8-1.8,1.6-2.7,2.4c-14.2,13.7-28.4,27.3-42.7,41c-5.3,5.1-10.6,10.2-16,15.2c-0.6,0.6-1.6,1-2.4,1c-3.9,0-7.9-0.1-11.8-0.1
		c-1.4,0-1.6-0.8-2-1.8c-7.4-18.7-14.8-37.3-22.2-56c-0.3-0.7-0.6-1.3-1-2.4c-1.6,4.8-3,9.1-4.4,13.5c-4.9,14.9-9.8,29.8-14.6,44.7
		c-0.5,1.7-1.4,2.2-3.1,2.2c-9.2-0.2-18.3-0.2-27.5-0.3c-0.5,0-0.9-0.1-1.6-0.1c0.5-1.8,1-3.4,1.5-5c9.8-30.2,19.7-60.4,29.5-90.6
		c0.6-1.9,1.4-2.5,3.4-2.5c11.2,0.1,22.4,0.1,33.5,0c1.6,0,2.3,0.5,2.9,2c7.5,19,15.1,38,22.7,56.9
		C264.4,361.7,264.6,362.3,265.1,363.3z"/>
	
		<linearGradient id="SVGID_00000023970443769566338570000018226593079123115711_" gradientUnits="userSpaceOnUse" x1="705.7735" y1="486.073" x2="707.9335" y2="270.073" gradientTransform="matrix(1 0 0 -1 0 748)">
		<stop  offset="2.000000e-02" style="stop-color:#878787"/>
		<stop  offset="0.24" style="stop-color:#6E6E6E"/>
		<stop  offset="0.38" style="stop-color:#B1B1B1"/>
		<stop  offset="0.47" style="stop-color:#D7D7D7"/>
		<stop  offset="0.76" style="stop-color:#848484"/>
		<stop  offset="1" style="stop-color:#000000"/>
	</linearGradient>
	<path style="fill:url(#SVGID_00000023970443769566338570000018226593079123115711_);" d="M780.7,302.3c-1.3,4-2.4,7.8-3.6,11.5
		c-0.9,2.7-1.9,5.4-2.6,8.2c-0.5,1.7-1.3,2.3-3.1,2.2c-15.9-0.1-31.7,0-47.6,0c-9.7,0-19.4,0-29.1,0c-3.5,0-6.9,0.6-10.1,2.3
		c-3.7,1.9-6.3,4.9-7.6,8.9c-3.4,10.3-6.7,20.7-10,31.1c-0.2,0.6-0.3,1.2-0.5,1.7c-1.1,5.6,1.2,9.1,6.8,10.1
		c1.5,0.3,3.1,0.4,4.6,0.4c14.7,0,29.5,0,44.2,0.1c1.5,0,2.2-0.5,2.6-1.9c3.3-10.1,6.6-20.2,9.9-30.2c0.3-0.9,0.5-1.5,1.7-1.5
		c9.9,0,19.8,0,29.7,0c0.2,0,0.4,0.1,0.7,0.2c-2.2,7-4.4,14-6.7,21c-3.5,10.8-7.1,21.5-10.5,32.3c-0.5,1.6-1.2,2.2-3,2.2
		c-27.2-0.1-54.4,0-81.5-0.1c-5.6,0-11.2-0.6-16.6-2.4c-13.2-4.4-18.7-14.5-14.7-27.8c3.4-11.2,7.5-22.3,10.8-33.5
		c5.7-19.1,19.3-29,37.9-33.1c5.1-1.1,10.5-1.6,15.7-1.6c26.6-0.2,53.2-0.1,79.7-0.1C778.8,302.3,779.6,302.3,780.7,302.3z"/>
	
		<linearGradient id="SVGID_00000067204350009853955950000013582925168919269299_" gradientUnits="userSpaceOnUse" x1="544.6938" y1="484.4621" x2="546.8539" y2="268.4621" gradientTransform="matrix(1 0 0 -1 0 748)">
		<stop  offset="2.000000e-02" style="stop-color:#878787"/>
		<stop  offset="0.24" style="stop-color:#6E6E6E"/>
		<stop  offset="0.38" style="stop-color:#B1B1B1"/>
		<stop  offset="0.47" style="stop-color:#D7D7D7"/>
		<stop  offset="0.76" style="stop-color:#848484"/>
		<stop  offset="1" style="stop-color:#000000"/>
	</linearGradient>
	<path style="fill:url(#SVGID_00000067204350009853955950000013582925168919269299_);" d="M599.3,302.4c1.3,14.1,2.5,27.9,3.8,41.8
		c1.3,14.5,2.6,29,3.9,43.5c0.3,3.7,0.6,7.3,0.9,11c0.1,1.4-0.3,2-1.8,2c-9.4-0.1-18.9-0.2-28.3-0.2c-1.1,0-1.5-0.3-1.6-1.5
		c-1.2-14.6-2.4-29.1-3.6-43.7c-0.8-9.4-1.6-18.7-2.5-28.8c-0.8,1.1-1.4,1.8-1.9,2.5c-17,23.1-34,46.2-50.9,69.4
		c-1.2,1.6-2.4,2.3-4.4,2.3c-9.4-0.1-18.7,0-28.7,0c0.7-1,1-1.6,1.3-2.1c23.4-31.7,46.9-63.4,70.3-95.1c0.4-0.6,1.3-1.2,2-1.2
		c13.5-0.1,27-0.1,40.6,0C598.5,302.3,598.8,302.4,599.3,302.4z"/>
	
		<linearGradient id="SVGID_00000101102593692696376010000002120360428125371304_" gradientUnits="userSpaceOnUse" x1="98.725" y1="480.0025" x2="100.885" y2="264.0025" gradientTransform="matrix(1 0 0 -1 0 748)">
		<stop  offset="2.000000e-02" style="stop-color:#878787"/>
		<stop  offset="0.24" style="stop-color:#6E6E6E"/>
		<stop  offset="0.38" style="stop-color:#B1B1B1"/>
		<stop  offset="0.47" style="stop-color:#D7D7D7"/>
		<stop  offset="0.76" style="stop-color:#848484"/>
		<stop  offset="1" style="stop-color:#000000"/>
	</linearGradient>
	<path style="fill:url(#SVGID_00000101102593692696376010000002120360428125371304_);" d="M165.8,340.5c-0.5,1.7-1,3.1-1.4,4.5
		c-1.6,5.1-3.4,10.1-4.8,15.3c-0.6,2-1.6,2.4-3.4,2.4c-24.4-0.1-48.9-0.1-73.3,0c-6.5,0-4.8-0.8-6.8,4.9c-1.2,3.4-2.3,6.8-3.4,10.3
		c-0.1,0.2,0,0.4-0.1,0.9c26.8,0,53.5,0,80.5,0c-0.2,0.9-0.3,1.5-0.5,2c-1.9,6-3.8,12.1-5.7,18.1c-0.4,1.4-1.1,2-2.7,2
		c-36.3-0.1-72.6-0.2-108.8-0.3c-0.5,0-0.9-0.1-1.7-0.1c0.2-0.8,0.3-1.6,0.6-2.3c6-18.4,12-36.8,17.8-55.2c0.6-1.9,1.5-2.4,3.4-2.4
		c35.9,0.1,71.9,0,107.8,0C164.1,340.5,164.8,340.5,165.8,340.5z"/>
	
		<linearGradient id="SVGID_00000011733144920072103140000018319880298427956890_" gradientUnits="userSpaceOnUse" x1="449.9614" y1="483.5148" x2="452.1213" y2="267.5148" gradientTransform="matrix(1 0 0 -1 0 748)">
		<stop  offset="2.000000e-02" style="stop-color:#878787"/>
		<stop  offset="0.24" style="stop-color:#6E6E6E"/>
		<stop  offset="0.38" style="stop-color:#B1B1B1"/>
		<stop  offset="0.47" style="stop-color:#D7D7D7"/>
		<stop  offset="0.76" style="stop-color:#848484"/>
		<stop  offset="1" style="stop-color:#000000"/>
	</linearGradient>
	<path style="fill:url(#SVGID_00000011733144920072103140000018319880298427956890_);" d="M516.5,302.3c-2.3,7.1-4.4,14-6.8,20.8
		c-0.2,0.6-1.4,1.1-2.2,1.1c-8.2,0.1-16.3,0.1-24.5,0.1c-5.8,0-11.7,0.1-17.5,0c-2.2-0.1-3,0.7-3.6,2.7c-7.6,23.5-15.2,47-22.9,70.4
		c-1.3,3.9-0.5,3.4-4.6,3.4c-8.7,0-17.4-0.1-26.1-0.2c-0.5,0-1.1-0.1-2-0.1c8.2-25.4,16.4-50.6,24.6-76.1c-15.6,0-30.7,0-46.5,0
		c2.5-7.5,4.9-14.7,7.2-21.9C433.3,302.3,474.8,302.3,516.5,302.3z"/>
	
		<linearGradient id="SVGID_00000047755124644294659760000007516314204876023730_" gradientUnits="userSpaceOnUse" x1="117.7966" y1="480.1931" x2="119.9566" y2="264.1931" gradientTransform="matrix(1 0 0 -1 0 748)">
		<stop  offset="2.000000e-02" style="stop-color:#878787"/>
		<stop  offset="0.24" style="stop-color:#6E6E6E"/>
		<stop  offset="0.38" style="stop-color:#B1B1B1"/>
		<stop  offset="0.47" style="stop-color:#D7D7D7"/>
		<stop  offset="0.76" style="stop-color:#848484"/>
		<stop  offset="1" style="stop-color:#000000"/>
	</linearGradient>
	<path style="fill:url(#SVGID_00000047755124644294659760000007516314204876023730_);" d="M58.4,324c2.5-7.4,4.8-14.6,7.2-21.7
		c37.5,0,74.9,0,112.5,0c-0.2,0.7-0.3,1.4-0.5,2c-1.9,6.1-3.9,12.2-5.8,18.3c-0.4,1.2-0.9,1.7-2.2,1.7c-36.6-0.1-73.2-0.1-109.9-0.2
		C59.3,324.1,59,324.1,58.4,324z"/>
	
		<linearGradient id="SVGID_00000111150315348022621220000000164662014420420030_" gradientUnits="userSpaceOnUse" x1="223.4735" y1="481.25" x2="225.6335" y2="265.25" gradientTransform="matrix(1 0 0 -1 0 748)">
		<stop  offset="2.000000e-02" style="stop-color:#878787"/>
		<stop  offset="0.24" style="stop-color:#6E6E6E"/>
		<stop  offset="0.38" style="stop-color:#B1B1B1"/>
		<stop  offset="0.47" style="stop-color:#D7D7D7"/>
		<stop  offset="0.76" style="stop-color:#848484"/>
		<stop  offset="1" style="stop-color:#000000"/>
	</linearGradient>
	<path style="fill:url(#SVGID_00000111150315348022621220000000164662014420420030_);" d="M408.6,427.8c-0.6,2.1-1.2,3.9-1.8,6
		c3.3,0,6.3,0,9.3,0c0.3,0,0.8-0.4,1-0.8c0.3-0.5,0.4-1.1,0.6-1.7c1.4-4.1,1.4-4.1,6.1-3.4c-1.6,5-3.2,9.9-4.8,14.8
		c-0.1,0.4-0.7,0.8-1.2,0.8c-1.2,0.1-2.5,0-4.1,0c0.6-2.2,1.2-4,1.8-6.2c-3.2,0-6.2,0-9.2,0c-0.4,0-0.8,0.6-1,1
		c-0.3,0.5-0.4,1.1-0.6,1.7c-1.3,3.9-1.7,4.1-6,3.2c1.3-4,2.5-7.9,3.9-12.3c-125.6,0-250.8,0-376.2,0c0-1.2,0-2.1,0-3.1
		C153.7,427.8,281,427.8,408.6,427.8z"/>
	
		<linearGradient id="SVGID_00000018206243184884446620000003882611233276631438_" gradientUnits="userSpaceOnUse" x1="548.139" y1="484.4966" x2="550.299" y2="268.4966" gradientTransform="matrix(1 0 0 -1 0 748)">
		<stop  offset="2.000000e-02" style="stop-color:#878787"/>
		<stop  offset="0.24" style="stop-color:#6E6E6E"/>
		<stop  offset="0.38" style="stop-color:#B1B1B1"/>
		<stop  offset="0.47" style="stop-color:#D7D7D7"/>
		<stop  offset="0.76" style="stop-color:#848484"/>
		<stop  offset="1" style="stop-color:#000000"/>
	</linearGradient>
	<path style="fill:url(#SVGID_00000018206243184884446620000003882611233276631438_);" d="M530,400.4c1.9-6.2,3.8-12.1,5.6-18
		c1.2-3.8,1.2-3.8,5.3-3.7c8.5,0,17,0.1,25.5,0.1c0.7,0,1.4,0,2.4,0c-1.9,5.9-3.6,11.5-5.5,17.2c-1.6,4.8-1.6,4.8-6.6,4.8
		c-8.4-0.1-16.7-0.1-25.1-0.2C531.3,400.5,530.8,400.4,530,400.4z"/>
	
		<linearGradient id="SVGID_00000088099001451208839200000007011046523367937714_" gradientUnits="userSpaceOnUse" x1="638.4691" y1="485.3999" x2="640.629" y2="269.3999" gradientTransform="matrix(1 0 0 -1 0 748)">
		<stop  offset="2.000000e-02" style="stop-color:#878787"/>
		<stop  offset="0.24" style="stop-color:#6E6E6E"/>
		<stop  offset="0.38" style="stop-color:#B1B1B1"/>
		<stop  offset="0.47" style="stop-color:#D7D7D7"/>
		<stop  offset="0.76" style="stop-color:#848484"/>
		<stop  offset="1" style="stop-color:#000000"/>
	</linearGradient>
	<path style="fill:url(#SVGID_00000088099001451208839200000007011046523367937714_);" d="M646,443.6c1.1-3.3,2-6.2,2.9-9
		c-0.1-0.1-0.2-0.2-0.3-0.3c-1.1,1-2.1,2-3.2,3c-1.9,1.8-3.7,3.7-5.6,5.5c-1.7,1.6-3.1,1.2-3.9-0.9c-1-2.4-1.9-4.8-2.9-7.3
		c0-0.1-0.2-0.1-0.6-0.3c-0.7,2.2-1.4,4.3-2.1,6.4c-1.2,3.4-0.5,2.8-4.1,2.9c-0.5,0-1-0.1-1.9-0.1c1.1-3.5,2.2-6.9,3.3-10.2
		c0.2-0.6,0.4-1.3,0.7-1.9c1.2-3.7,1.2-3.6,5.2-3.7c1.7-0.1,2.5,0.6,3,2.1c0.9,2.5,2,4.9,3.1,7.8c2.4-2.2,4.6-4.3,6.8-6.4
		c0.2-0.2,0.5-0.4,0.7-0.7c2.2-3.2,5.4-3.1,9-2.6c-1.6,5-3.2,10-4.8,14.9c-0.1,0.4-0.8,0.7-1.2,0.8
		C648.9,443.7,647.7,443.6,646,443.6z"/>
	
		<linearGradient id="SVGID_00000083076261777451038260000006745930224618143406_" gradientUnits="userSpaceOnUse" x1="686.9156" y1="485.8844" x2="689.0757" y2="269.8844" gradientTransform="matrix(1 0 0 -1 0 748)">
		<stop  offset="2.000000e-02" style="stop-color:#878787"/>
		<stop  offset="0.24" style="stop-color:#6E6E6E"/>
		<stop  offset="0.38" style="stop-color:#B1B1B1"/>
		<stop  offset="0.47" style="stop-color:#D7D7D7"/>
		<stop  offset="0.76" style="stop-color:#848484"/>
		<stop  offset="1" style="stop-color:#000000"/>
	</linearGradient>
	<path style="fill:url(#SVGID_00000083076261777451038260000006745930224618143406_);" d="M693,437.4c1-2.8,1.9-5.1,2.5-7.5
		c0.5-1.8,1.3-2.6,3.2-2.3c0.8,0.1,1.6,0,2.6,0c-1.6,5.1-3.2,10-4.8,14.9c-0.1,0.3-0.4,0.7-0.7,0.9c-1.6,0.8-5-0.1-6-1.6
		c-1.8-2.6-3.6-5.3-5.6-8.3c-0.9,2.7-1.8,5-2.3,7.4c-0.5,2-1.5,3-3.6,2.6c-0.6-0.1-1.3,0-2.3,0c0.2-0.9,0.4-1.5,0.6-2.1
		c1.3-4,2.7-8.1,4-12.1c0.4-1.2,0.9-1.6,2.2-1.7c2.5-0.2,4.2,0.5,5.5,2.9C689.5,432.8,691.2,434.8,693,437.4z"/>
	
		<linearGradient id="SVGID_00000122707113350288324480000003277704450211591826_" gradientUnits="userSpaceOnUse" x1="543.2956" y1="484.4481" x2="545.4556" y2="268.4481" gradientTransform="matrix(1 0 0 -1 0 748)">
		<stop  offset="2.000000e-02" style="stop-color:#878787"/>
		<stop  offset="0.24" style="stop-color:#6E6E6E"/>
		<stop  offset="0.38" style="stop-color:#B1B1B1"/>
		<stop  offset="0.47" style="stop-color:#D7D7D7"/>
		<stop  offset="0.76" style="stop-color:#848484"/>
		<stop  offset="1" style="stop-color:#000000"/>
	</linearGradient>
	<path style="fill:url(#SVGID_00000122707113350288324480000003277704450211591826_);" d="M548.8,438c1.3,1.6,2.8,3.4,4.5,5.4
		c-3.4,0.2-6.4,1-8.5-2.3c-0.7-1.2-1.8-2.2-2.8-3.2c-0.9-1-1.7-0.9-2.2,0.5c-0.2,0.5-0.3,1-0.5,1.5c-1.3,4.1-1.4,4.2-6.2,3.4
		c1-3,1.9-5.9,3-8.8c0.1-0.4,1.1-0.6,1.7-0.6c3.1-0.1,6.1,0,9.2,0c0.6,0,1.2,0,1.8,0c1.2-0.1,2.7,0,2.6-1.7c0-0.4-1.7-0.9-2.6-1
		c-3.8-0.1-7.6,0-11.4,0c0.4-3.3,0.5-3.4,3.3-3.4c3.9,0,7.9,0,11.8,0.1c1.8,0,3.5,0.5,4.2,2.4s0,3.8-1.6,4.8
		C553.4,436.2,551.1,436.9,548.8,438z"/>
	
		<linearGradient id="SVGID_00000183957076024630999050000010103369133347735473_" gradientUnits="userSpaceOnUse" x1="611.3121" y1="485.1283" x2="613.4721" y2="269.1283" gradientTransform="matrix(1 0 0 -1 0 748)">
		<stop  offset="2.000000e-02" style="stop-color:#878787"/>
		<stop  offset="0.24" style="stop-color:#6E6E6E"/>
		<stop  offset="0.38" style="stop-color:#B1B1B1"/>
		<stop  offset="0.47" style="stop-color:#D7D7D7"/>
		<stop  offset="0.76" style="stop-color:#848484"/>
		<stop  offset="1" style="stop-color:#000000"/>
	</linearGradient>
	<path style="fill:url(#SVGID_00000183957076024630999050000010103369133347735473_);" d="M621.4,443.6c-2.2,0-3.9,0.1-5.5-0.1
		c-0.6-0.1-1.3-0.6-1.8-1.1c-1.3-1.4-2.6-2.9-3.9-4.3c-1.2-1.3-1.9-1.2-2.5,0.6c-0.1,0.4-0.3,0.8-0.4,1.1c-1.3,4.2-1.3,4.2-6.2,3.5
		c1-3,1.9-5.9,3-8.8c0.1-0.4,1.1-0.6,1.7-0.6c3.1-0.1,6.1,0,9.2,0c0.5,0,1.1,0,1.6,0c1.2-0.1,2.8,0,2.8-1.7c0-0.3-1.8-0.9-2.8-1
		c-3-0.1-6,0-9-0.1c-0.7,0-1.4-0.1-2.1-0.1c0.1-3,0.4-3.3,3.1-3.3c4,0,8,0,12,0.1c1.8,0,3.4,0.5,4.1,2.3c0.8,1.9,0,3.7-1.5,4.8
		c-1.4,1.1-3.3,1.6-5,2.3c-0.5,0.2-1.1,0.2-2,0.3C618,439.6,619.5,441.4,621.4,443.6z"/>
	
		<linearGradient id="SVGID_00000081622379002532084420000002528511468168308106_" gradientUnits="userSpaceOnUse" x1="588.6873" y1="484.9021" x2="590.8472" y2="268.9021" gradientTransform="matrix(1 0 0 -1 0 748)">
		<stop  offset="2.000000e-02" style="stop-color:#878787"/>
		<stop  offset="0.24" style="stop-color:#6E6E6E"/>
		<stop  offset="0.38" style="stop-color:#B1B1B1"/>
		<stop  offset="0.47" style="stop-color:#D7D7D7"/>
		<stop  offset="0.76" style="stop-color:#848484"/>
		<stop  offset="1" style="stop-color:#000000"/>
	</linearGradient>
	<path style="fill:url(#SVGID_00000081622379002532084420000002528511468168308106_);" d="M592.9,427.8c1.7,0,3.4-0.1,5,0
		c3.1,0.3,4.3,2.2,3.5,5.1c-0.4,1.4-0.9,2.8-1.3,4.2c-1,3.9-3.7,6.1-7.6,6.3c-3.3,0.2-6.7,0.2-10-0.2c-2.8-0.3-3.8-2-3.1-4.7
		c0.6-2.1,1.2-4.2,2.1-6.3c1.2-3,3.8-4.2,6.8-4.5C589.8,427.7,591.4,427.8,592.9,427.8z M591.8,431.1c-5,0-5,0-6.4,4.6
		c-0.2,0.6-0.4,1.3-0.6,1.9c-0.6,1.6,0.2,2.3,1.6,2.4c1.1,0.1,2.1,0.1,3.2,0.1c4.1,0,4.5-0.3,5.7-4.1
		C597,431.1,597,431.1,591.8,431.1z"/>
	
		<linearGradient id="SVGID_00000003802484129959560310000001186788754346341777_" gradientUnits="userSpaceOnUse" x1="441.5781" y1="483.4311" x2="443.7381" y2="267.4311" gradientTransform="matrix(1 0 0 -1 0 748)">
		<stop  offset="2.000000e-02" style="stop-color:#878787"/>
		<stop  offset="0.24" style="stop-color:#6E6E6E"/>
		<stop  offset="0.38" style="stop-color:#B1B1B1"/>
		<stop  offset="0.47" style="stop-color:#D7D7D7"/>
		<stop  offset="0.76" style="stop-color:#848484"/>
		<stop  offset="1" style="stop-color:#000000"/>
	</linearGradient>
	<path style="fill:url(#SVGID_00000003802484129959560310000001186788754346341777_);" d="M455,427.8c-0.5,3.4-0.5,3.4-3.5,3.4
		c-3.1,0-6.3,0-9.4,0c-2.1,0-3.5,0.7-3.9,2.8c-0.3,1.3-0.8,2.6-1.2,3.8c-0.5,1.4,0.1,2.2,1.4,2.3c2.3,0.1,4.7,0.2,7,0
		c0.5,0,1.2-1,1.4-1.6c1.5-4.1,1.5-4.1,6.3-3.7c-0.9,2.7-1.7,5.4-2.7,8.1c-0.1,0.4-0.9,0.7-1.4,0.7c-4.3,0.1-8.6,0.2-12.8,0
		c-4.3-0.2-5.5-2.2-4.1-6.3c0.4-1.3,0.8-2.5,1.3-3.8c1.2-3.6,3.8-5.6,7.6-5.7C445.5,427.7,450.2,427.8,455,427.8z"/>
	
		<linearGradient id="SVGID_00000086661982040677880750000003625954779630277814_" gradientUnits="userSpaceOnUse" x1="464.1864" y1="483.657" x2="466.3464" y2="267.657" gradientTransform="matrix(1 0 0 -1 0 748)">
		<stop  offset="2.000000e-02" style="stop-color:#878787"/>
		<stop  offset="0.24" style="stop-color:#6E6E6E"/>
		<stop  offset="0.38" style="stop-color:#B1B1B1"/>
		<stop  offset="0.47" style="stop-color:#D7D7D7"/>
		<stop  offset="0.76" style="stop-color:#848484"/>
		<stop  offset="1" style="stop-color:#000000"/>
	</linearGradient>
	<path style="fill:url(#SVGID_00000086661982040677880750000003625954779630277814_);" d="M453.3,443.3c1.6-4.9,3.2-9.9,4.9-14.8
		c0.1-0.4,0.8-0.7,1.2-0.7c1.2-0.1,2.4,0,3.9,0c-0.6,2.1-1.1,4-1.8,6.1c3.2,0,6.2,0,9.2,0c0.4,0,0.9-0.5,1.1-0.9
		c0.3-0.6,0.5-1.2,0.7-1.9c1.2-3.7,1.7-3.9,6-3c-1.6,4.9-3.1,9.8-4.7,14.6c-0.1,0.4-0.7,0.9-1.1,0.9c-1.3,0.1-2.6,0-4.2,0
		c0.6-2.2,1.2-4,1.8-6.2c-3.2,0-6.2,0-9.1,0c-0.4,0-0.9,0.5-1.1,0.9c-0.3,0.6-0.4,1.3-0.6,1.9C458.2,444,457.6,444.3,453.3,443.3z"
		/>
	
		<linearGradient id="SVGID_00000015316361653782948430000004847125093684373672_" gradientUnits="userSpaceOnUse" x1="710.1769" y1="486.117" x2="712.3369" y2="270.117" gradientTransform="matrix(1 0 0 -1 0 748)">
		<stop  offset="2.000000e-02" style="stop-color:#878787"/>
		<stop  offset="0.24" style="stop-color:#6E6E6E"/>
		<stop  offset="0.38" style="stop-color:#B1B1B1"/>
		<stop  offset="0.47" style="stop-color:#D7D7D7"/>
		<stop  offset="0.76" style="stop-color:#848484"/>
		<stop  offset="1" style="stop-color:#000000"/>
	</linearGradient>
	<path style="fill:url(#SVGID_00000015316361653782948430000004847125093684373672_);" d="M717.8,433.7c0.6-2.3-0.8-2.6-2.4-2.6
		c-1.6,0-3.3-0.2-4.8,0.1c-1.1,0.2-2.3,1.1-2.8,2c-0.8,1.3-1.1,3-1.5,4.5c-0.4,1.3,0.1,2.2,1.5,2.2c2,0.1,4,0.1,6,0
		c0.6,0,1.4-0.3,1.6-0.7c1.4-2.8,3.8-1.7,5.9-1.8c-0.3,2.9-2.4,5.4-5.6,5.7c-3.8,0.4-7.7,0.4-11.6,0.2c-2.9-0.2-3.9-2.2-3-5
		c0.5-1.7,1.1-3.3,1.6-4.9c1-3.4,3.4-5.1,6.7-5.5c3.4-0.3,6.8-0.2,10.2,0c1.1,0.1,2.5,0.9,3.1,1.8c0.5,0.8,0.4,2.3,0.1,3.4
		c-0.1,0.4-1.4,0.5-2.2,0.6C719.8,433.8,719,433.7,717.8,433.7z"/>
	
		<linearGradient id="SVGID_00000109748136625856570350000006612357296397908623_" gradientUnits="userSpaceOnUse" x1="498.7876" y1="484.0031" x2="500.9476" y2="268.0031" gradientTransform="matrix(1 0 0 -1 0 748)">
		<stop  offset="2.000000e-02" style="stop-color:#878787"/>
		<stop  offset="0.24" style="stop-color:#6E6E6E"/>
		<stop  offset="0.38" style="stop-color:#B1B1B1"/>
		<stop  offset="0.47" style="stop-color:#D7D7D7"/>
		<stop  offset="0.76" style="stop-color:#848484"/>
		<stop  offset="1" style="stop-color:#000000"/>
	</linearGradient>
	<path style="fill:url(#SVGID_00000109748136625856570350000006612357296397908623_);" d="M488.6,443.3c0.9-2.8,1.7-5.5,2.7-8.1
		c0.2-0.6,1.3-1.2,2.1-1.2c3.4-0.1,6.8,0,10.2-0.1c1.3,0,3.4,0.2,3.3-1.6c-0.1-1.7-2-1-3.2-1.1c-3.6-0.1-7.2,0-10.8,0
		c0.3-3.3,0.4-3.4,3.3-3.4c3.9,0,7.9,0,11.8,0.1c1.8,0,3.5,0.5,4.2,2.4s-0.2,3.4-1.5,4.7c-1.7,1.7-3.8,2.4-6.2,2.4
		c-2.5,0-5.1-0.1-7.6,0c-0.6,0-1.3,0.8-1.8,1.3c-0.3,0.3-0.3,0.9-0.5,1.3C493.4,444,493.2,444,488.6,443.3z"/>
	
		<linearGradient id="SVGID_00000103946258243140977650000003194830795484881031_" gradientUnits="userSpaceOnUse" x1="661.9392" y1="485.6346" x2="664.0991" y2="269.6346" gradientTransform="matrix(1 0 0 -1 0 748)">
		<stop  offset="2.000000e-02" style="stop-color:#878787"/>
		<stop  offset="0.24" style="stop-color:#6E6E6E"/>
		<stop  offset="0.38" style="stop-color:#B1B1B1"/>
		<stop  offset="0.47" style="stop-color:#D7D7D7"/>
		<stop  offset="0.76" style="stop-color:#848484"/>
		<stop  offset="1" style="stop-color:#000000"/>
	</linearGradient>
	<path style="fill:url(#SVGID_00000103946258243140977650000003194830795484881031_);" d="M673.7,443.5c-1.8,0-3.3,0-5.1,0
		c-0.3-3.8-0.7-7.6-1-11.4c-0.1-0.1-0.3-0.1-0.4-0.2c-0.6,0.8-1.2,1.5-1.7,2.3c-1.6,2.2-3.4,4.3-4.8,6.7c-1.6,2.9-3.9,3-6.9,2.5
		c0.4-0.6,0.7-1.2,1.1-1.7c3.2-4.3,6.5-8.5,9.5-12.9c0.9-1.3,2.1-1.2,3.3-1.2c4.3,0,4.4,0,4.8,4.2
		C672.9,435.7,673.3,439.5,673.7,443.5z"/>
	
		<linearGradient id="SVGID_00000025406579589112964800000003478448477653984396_" gradientUnits="userSpaceOnUse" x1="520.6517" y1="484.2217" x2="522.8118" y2="268.2221" gradientTransform="matrix(1 0 0 -1 0 748)">
		<stop  offset="2.000000e-02" style="stop-color:#878787"/>
		<stop  offset="0.24" style="stop-color:#6E6E6E"/>
		<stop  offset="0.38" style="stop-color:#B1B1B1"/>
		<stop  offset="0.47" style="stop-color:#D7D7D7"/>
		<stop  offset="0.76" style="stop-color:#848484"/>
		<stop  offset="1" style="stop-color:#000000"/>
	</linearGradient>
	<path style="fill:url(#SVGID_00000025406579589112964800000003478448477653984396_);" d="M533,433.9c-0.7,3.4-0.7,3.4-3.7,3.4
		c-2.8,0-5.6,0.1-8.4-0.1c-2-0.1-2.6,0.9-2.5,2.8c4.2,0,8.3,0,12.4,0c0,3.2-0.4,3.5-3.2,3.5c-4.6,0-9.1,0-13.7-0.1
		c-0.6,0-1.2-0.1-2.1-0.1c1-3.1,1.9-6,2.9-8.8c0.1-0.3,0.7-0.7,1.1-0.7C521.5,433.9,527.1,433.9,533,433.9z"/>
	
		<linearGradient id="SVGID_00000152255070425700767860000009004088538345837732_" gradientUnits="userSpaceOnUse" x1="731.2803" y1="486.328" x2="733.4402" y2="270.3279" gradientTransform="matrix(1 0 0 -1 0 748)">
		<stop  offset="2.000000e-02" style="stop-color:#878787"/>
		<stop  offset="0.24" style="stop-color:#6E6E6E"/>
		<stop  offset="0.38" style="stop-color:#B1B1B1"/>
		<stop  offset="0.47" style="stop-color:#D7D7D7"/>
		<stop  offset="0.76" style="stop-color:#848484"/>
		<stop  offset="1" style="stop-color:#000000"/>
	</linearGradient>
	<path style="fill:url(#SVGID_00000152255070425700767860000009004088538345837732_);" d="M729.1,440.1c4.3,0,8.4,0,12.5,0
		c-0.2,3.4-0.4,3.5-3.5,3.5c-4.4,0-8.8,0-13.3-0.1c-0.6,0-1.3-0.1-2.3-0.1c1-3.1,1.9-5.9,2.9-8.7c0.1-0.4,0.6-0.8,1-0.8
		c5.7,0,11.5,0,17.2,0c-0.4,3.4-0.4,3.4-3.5,3.4c-2.9,0-5.8,0.1-8.6-0.1C729.7,437.2,729.1,438,729.1,440.1z"/>
	
		<linearGradient id="SVGID_00000015337603099931363410000005227421722916279695_" gradientUnits="userSpaceOnUse" x1="565.2978" y1="484.6682" x2="567.4578" y2="268.6682" gradientTransform="matrix(1 0 0 -1 0 748)">
		<stop  offset="2.000000e-02" style="stop-color:#878787"/>
		<stop  offset="0.24" style="stop-color:#6E6E6E"/>
		<stop  offset="0.38" style="stop-color:#B1B1B1"/>
		<stop  offset="0.47" style="stop-color:#D7D7D7"/>
		<stop  offset="0.76" style="stop-color:#848484"/>
		<stop  offset="1" style="stop-color:#000000"/>
	</linearGradient>
	<path style="fill:url(#SVGID_00000015337603099931363410000005227421722916279695_);" d="M577.6,433.9c-0.6,3.4-0.6,3.4-3.5,3.4
		s-5.9,0-8.8,0c-1.2,0-2.1,0.3-2.3,1.6c-0.1,0.5-0.3,0.9-0.4,1.3c-1.2,3.7-1.9,4.1-6.1,3c0.9-2.8,1.8-5.7,2.8-8.5
		c0.1-0.4,0.8-0.8,1.2-0.8C566.1,433.9,571.8,433.9,577.6,433.9z"/>
	
		<linearGradient id="SVGID_00000047771969761175937250000000327812568657886866_" gradientUnits="userSpaceOnUse" x1="734.6229" y1="486.3615" x2="736.7829" y2="270.3615" gradientTransform="matrix(1 0 0 -1 0 748)">
		<stop  offset="2.000000e-02" style="stop-color:#878787"/>
		<stop  offset="0.24" style="stop-color:#6E6E6E"/>
		<stop  offset="0.38" style="stop-color:#B1B1B1"/>
		<stop  offset="0.47" style="stop-color:#D7D7D7"/>
		<stop  offset="0.76" style="stop-color:#848484"/>
		<stop  offset="1" style="stop-color:#000000"/>
	</linearGradient>
	<path style="fill:url(#SVGID_00000047771969761175937250000000327812568657886866_);" d="M726.8,431c0.9-3.3,0.9-3.3,3.9-3.3
		c4.3,0,8.6,0,12.9,0c0.7,0,1.4,0,2.2,0c-0.6,3.4-0.6,3.4-3.8,3.4c-4.3,0-8.6,0-12.9,0C728.4,431.1,727.7,431,726.8,431z"/>
	
		<linearGradient id="SVGID_00000147212537815528270580000014713323450383879816_" gradientUnits="userSpaceOnUse" x1="523.9935" y1="484.2551" x2="526.1534" y2="268.2551" gradientTransform="matrix(1 0 0 -1 0 748)">
		<stop  offset="2.000000e-02" style="stop-color:#878787"/>
		<stop  offset="0.24" style="stop-color:#6E6E6E"/>
		<stop  offset="0.38" style="stop-color:#B1B1B1"/>
		<stop  offset="0.47" style="stop-color:#D7D7D7"/>
		<stop  offset="0.76" style="stop-color:#848484"/>
		<stop  offset="1" style="stop-color:#000000"/>
	</linearGradient>
	<path style="fill:url(#SVGID_00000147212537815528270580000014713323450383879816_);" d="M535,427.7c-0.7,3.4-0.7,3.4-3.7,3.4
		c-5,0-10,0-15,0c0.3-3.3,0.4-3.4,3.4-3.4C524.7,427.7,529.8,427.7,535,427.7z"/>
	
		<linearGradient id="SVGID_00000169521257034038625080000017240146680312890548_" gradientUnits="userSpaceOnUse" x1="568.5395" y1="484.7006" x2="570.6995" y2="268.7006" gradientTransform="matrix(1 0 0 -1 0 748)">
		<stop  offset="2.000000e-02" style="stop-color:#878787"/>
		<stop  offset="0.24" style="stop-color:#6E6E6E"/>
		<stop  offset="0.38" style="stop-color:#B1B1B1"/>
		<stop  offset="0.47" style="stop-color:#D7D7D7"/>
		<stop  offset="0.76" style="stop-color:#848484"/>
		<stop  offset="1" style="stop-color:#000000"/>
	</linearGradient>
	<path style="fill:url(#SVGID_00000169521257034038625080000017240146680312890548_);" d="M579.5,427.7c-0.4,3.3-0.5,3.4-3.3,3.4
		c-4.5,0-8.9,0-13.4,0c-0.6,0-1.3-0.1-1.9-0.1c0.4-3.3,0.5-3.3,3.3-3.3c4.4,0,8.8,0,13.2,0C578.1,427.7,578.8,427.7,579.5,427.7z"/>
	
		<linearGradient id="SVGID_00000059992983761356021440000017784288318481781383_" gradientUnits="userSpaceOnUse" x1="424.06" y1="483.2558" x2="426.22" y2="267.2558" gradientTransform="matrix(1 0 0 -1 0 748)">
		<stop  offset="2.000000e-02" style="stop-color:#878787"/>
		<stop  offset="0.24" style="stop-color:#6E6E6E"/>
		<stop  offset="0.38" style="stop-color:#B1B1B1"/>
		<stop  offset="0.47" style="stop-color:#D7D7D7"/>
		<stop  offset="0.76" style="stop-color:#848484"/>
		<stop  offset="1" style="stop-color:#000000"/>
	</linearGradient>
	<path style="fill:url(#SVGID_00000059992983761356021440000017784288318481781383_);" d="M421.7,443.6c1-3.1,1.8-5.8,2.8-8.4
		c0.2-0.6,1.1-1.1,1.7-1.2c1.1-0.2,2.2-0.1,3.7-0.1c-1,3.2-1.9,6.1-2.9,9c-0.1,0.3-0.7,0.7-1,0.7
		C424.7,443.6,423.4,443.6,421.7,443.6z"/>
	
		<linearGradient id="SVGID_00000049935228286726723280000001310677773998430373_" gradientUnits="userSpaceOnUse" x1="662.304" y1="485.6382" x2="664.4639" y2="269.6382" gradientTransform="matrix(1 0 0 -1 0 748)">
		<stop  offset="2.000000e-02" style="stop-color:#878787"/>
		<stop  offset="0.24" style="stop-color:#6E6E6E"/>
		<stop  offset="0.38" style="stop-color:#B1B1B1"/>
		<stop  offset="0.47" style="stop-color:#D7D7D7"/>
		<stop  offset="0.76" style="stop-color:#848484"/>
		<stop  offset="1" style="stop-color:#000000"/>
	</linearGradient>
	<path style="fill:url(#SVGID_00000049935228286726723280000001310677773998430373_);" d="M661.4,443.3c-0.1-3.2,0.8-3.7,5.4-3
		C666.6,443.8,665.7,444.3,661.4,443.3z"/>
	
		<linearGradient id="SVGID_00000021825199948820750420000008908939274693508238_" gradientUnits="userSpaceOnUse" x1="427.2526" y1="483.2878" x2="429.4126" y2="267.2878" gradientTransform="matrix(1 0 0 -1 0 748)">
		<stop  offset="2.000000e-02" style="stop-color:#878787"/>
		<stop  offset="0.24" style="stop-color:#6E6E6E"/>
		<stop  offset="0.38" style="stop-color:#B1B1B1"/>
		<stop  offset="0.47" style="stop-color:#D7D7D7"/>
		<stop  offset="0.76" style="stop-color:#848484"/>
		<stop  offset="1" style="stop-color:#000000"/>
	</linearGradient>
	<path style="fill:url(#SVGID_00000021825199948820750420000008908939274693508238_);" d="M426.1,430.9c0.8-3.5,1.4-3.9,5.6-2.9
		C431,431.1,431.8,431.5,426.1,430.9z"/>
</g>
</svg>
