<?xml version="1.0" encoding="UTF-8"?>
<svg id="Capa_1" data-name="Capa 1" xmlns="http://www.w3.org/2000/svg" xmlns:xlink="http://www.w3.org/1999/xlink" viewBox="0 0 807 746">
  <defs>
    <style>
      .cls-1 {
        fill: url(#Degradado_sin_nombre_16);
      }
    </style>
    <linearGradient id="Degradado_sin_nombre_16" data-name="Degradado sin nombre 16" x1="399.99" y1="16.08" x2="399.99" y2="729" gradientUnits="userSpaceOnUse">
      <stop offset=".02" stop-color="#878787"/>
      <stop offset=".24" stop-color="#6e6e6e"/>
      <stop offset=".38" stop-color="#b1b1b1"/>
      <stop offset=".47" stop-color="#d7d7d7"/>
      <stop offset=".76" stop-color="#848484"/>
      <stop offset="1" stop-color="#000"/>
    </linearGradient>
  </defs>
  <path class="cls-1" d="m713.12,362.13c2.33,173.56-137.01,315.22-308.9,316.93-174.9,1.75-316.22-137.08-317.38-311-1.15-172.73,138.07-314.21,310.21-315.23,173.38-1.03,314.84,137.4,316.07,309.3Zm-57.02,155.22c-3.39-1.47-5.34-2.36-7.33-3.17-80.69-32.76-161.4-65.46-242.03-98.36-4.93-2.01-8.95-1.73-13.7.25-75.49,31.38-151.04,62.61-226.58,93.89-6.71,2.78-13.39,5.64-20.13,8.49,41.46,74.02,132.96,144.18,249.64,144.35,112.94.17,198.54-50.6,260.14-145.45Zm2.98-7.47c50.22-88.78,54.06-211.45-15.31-310.72-57.76-82.65-138.53-124.17-239.4-129.09.2,2.27.23,3.23.37,4.18,4.22,30.01,8.43,60.02,12.68,90.03,8.2,57.87,16.38,115.74,24.76,173.58.38,2.61,2.11,5.68,4.17,7.29,57.71,44.89,115.54,89.61,173.36,134.36,13.01,10.07,26.04,20.1,39.37,30.38ZM396.45,71.09c-83.47-1.36-197.99,43.51-258.4,157.57-54.43,102.78-37.14,215.11,4.39,282.84,1.84-1.44,3.67-2.83,5.45-4.27,13.21-10.67,26.42-21.36,39.63-32.04,54.91-44.4,109.85-88.76,164.66-133.3,2.2-1.79,4.07-4.97,4.53-7.77,3.05-18.39,5.64-36.86,8.43-55.3,8.86-58.61,17.76-117.21,26.62-175.81,1.59-10.51,3.1-21.03,4.7-31.92Z"/>
</svg>