<?xml version="1.0" encoding="utf-8"?>
<!-- Generator: Adobe Illustrator 27.2.0, SVG Export Plug-In . SVG Version: 6.00 Build 0)  -->
<svg version="1.1" id="Capa_1" xmlns="http://www.w3.org/2000/svg" xmlns:xlink="http://www.w3.org/1999/xlink" x="0px" y="0px"
	 viewBox="0 0 807 746" style="enable-background:new 0 0 807 746;" xml:space="preserve">
<style type="text/css">
	.st0{fill:url(#SVGID_1_);}
	.st1{fill:url(#SVGID_00000060025748819663202320000003371434039348574102_);}
	.st2{fill:url(#SVGID_00000158730350481325808890000005610650321571635077_);}
	.st3{fill:url(#SVGID_00000046327436093589919000000017517972495466083480_);}
	.st4{fill:url(#SVGID_00000054954277235721037560000012611426210322818946_);}
	.st5{fill:url(#SVGID_00000122722888062105827750000002146594288903375294_);}
	.st6{fill:url(#SVGID_00000018204053161407316030000006713733204967780753_);}
	.st7{fill:url(#SVGID_00000081607310887345198460000015299488833268362649_);}
	.st8{fill:url(#SVGID_00000013907659358509687290000008437276183089639821_);}
	.st9{fill:url(#SVGID_00000072240023012145015300000011742206543667004585_);}
	.st10{fill:url(#SVGID_00000002377375525310168650000003422107316514125455_);}
	.st11{fill:url(#SVGID_00000131332268996815848830000007989894542977792131_);}
	.st12{fill:url(#SVGID_00000161617495545298410470000017558935618829595578_);}
	.st13{fill:url(#SVGID_00000050623786293096720390000011078799347969670820_);}
	.st14{fill:url(#SVGID_00000099659193841643683680000012863286560050530985_);}
	.st15{fill:url(#SVGID_00000058589089069588898300000009906965115740839301_);}
	.st16{fill:url(#SVGID_00000152985927618488967630000000446575042842901664_);}
	.st17{fill:url(#SVGID_00000110436864044580269750000000258872205685926563_);}
	.st18{fill:url(#SVGID_00000176760116370223355800000016055766564479979179_);}
	.st19{fill:url(#SVGID_00000164491447652985091310000001486123436933448869_);}
	.st20{fill:url(#SVGID_00000178920780117626168400000013712712862061038214_);}
	.st21{fill:url(#SVGID_00000163790295787082235070000016213010925476734595_);}
	.st22{fill:url(#SVGID_00000019666879619039691980000015842533864659899050_);}
	.st23{fill:url(#SVGID_00000026880027236676104650000000812105738324511367_);}
	.st24{fill:url(#SVGID_00000010999826815405699500000012487009439011612837_);}
	.st25{fill:url(#SVGID_00000068672229178374219000000017232520654097374903_);}
	.st26{fill:url(#SVGID_00000057863328828645167510000017184831551273236868_);}
</style>
<g>
	<linearGradient id="SVGID_1_" gradientUnits="userSpaceOnUse" x1="268.1982" y1="266.3028" x2="270.3582" y2="482.3028">
		<stop  offset="2.000000e-02" style="stop-color:#878787"/>
		<stop  offset="0.24" style="stop-color:#6E6E6E"/>
		<stop  offset="0.38" style="stop-color:#B1B1B1"/>
		<stop  offset="0.47" style="stop-color:#D7D7D7"/>
		<stop  offset="0.76" style="stop-color:#848484"/>
		<stop  offset="1" style="stop-color:#000000"/>
	</linearGradient>
	<path class="st0" d="M265.1,363.3c2.8-2.6,5.5-5.1,8.1-7.5c18.4-17.5,36.7-34.9,55.1-52.4c0.6-0.6,1.6-1.1,2.4-1.1
		c12-0.1,24,0,35.9,0c0.3,0,0.5,0.1,1,0.1c-2,6.3-3.9,12.6-5.9,18.8c-8.4,25.7-16.9,51.5-25.2,77.2c-0.6,1.8-1.4,2.4-3.3,2.3
		c-9.1-0.2-18.2-0.2-27.3-0.3c-0.5,0-1.1-0.1-1.9-0.2c6.3-19.8,12.6-39.5,18.9-59.1c-0.1-0.1-0.2-0.2-0.3-0.2
		c-0.9,0.8-1.8,1.6-2.7,2.4c-14.2,13.7-28.4,27.3-42.7,41c-5.3,5.1-10.6,10.2-16,15.2c-0.6,0.6-1.6,1-2.4,1c-3.9,0-7.9-0.1-11.8-0.1
		c-1.4,0-1.6-0.8-2-1.8c-7.4-18.7-14.8-37.3-22.2-56c-0.3-0.7-0.6-1.3-1-2.4c-1.6,4.8-3,9.1-4.4,13.5c-4.9,14.9-9.8,29.8-14.6,44.7
		c-0.5,1.7-1.4,2.2-3.1,2.2c-9.2-0.2-18.3-0.2-27.5-0.3c-0.5,0-0.9-0.1-1.6-0.1c0.5-1.8,1-3.4,1.5-5c9.8-30.2,19.7-60.4,29.5-90.6
		c0.6-1.9,1.4-2.5,3.4-2.5c11.2,0.1,22.4,0.1,33.5,0c1.6,0,2.3,0.5,2.9,2c7.5,19,15.1,38,22.7,56.9
		C264.4,361.7,264.6,362.3,265.1,363.3z"/>
	
		<linearGradient id="SVGID_00000124872652444719874230000017583886605882469268_" gradientUnits="userSpaceOnUse" x1="705.8475" y1="261.9263" x2="708.0075" y2="477.9263">
		<stop  offset="2.000000e-02" style="stop-color:#878787"/>
		<stop  offset="0.24" style="stop-color:#6E6E6E"/>
		<stop  offset="0.38" style="stop-color:#B1B1B1"/>
		<stop  offset="0.47" style="stop-color:#D7D7D7"/>
		<stop  offset="0.76" style="stop-color:#848484"/>
		<stop  offset="1" style="stop-color:#000000"/>
	</linearGradient>
	<path style="fill:url(#SVGID_00000124872652444719874230000017583886605882469268_);" d="M780.7,302.3c-1.3,4-2.4,7.8-3.6,11.5
		c-0.9,2.7-1.9,5.4-2.6,8.2c-0.5,1.7-1.3,2.3-3.1,2.2c-15.9-0.1-31.7,0-47.6,0c-9.7,0-19.4,0-29.1,0c-3.5,0-6.9,0.6-10.1,2.3
		c-3.7,1.9-6.3,4.9-7.6,8.9c-3.4,10.3-6.7,20.7-10,31.1c-0.2,0.6-0.3,1.2-0.5,1.7c-1.1,5.6,1.2,9.1,6.8,10.1
		c1.5,0.3,3.1,0.4,4.6,0.4c14.7,0,29.5,0,44.2,0.1c1.5,0,2.2-0.5,2.6-1.9c3.3-10.1,6.6-20.2,9.9-30.2c0.3-0.9,0.5-1.5,1.7-1.5
		c9.9,0,19.8,0,29.7,0c0.2,0,0.4,0.1,0.7,0.2c-2.2,7-4.4,14-6.7,21c-3.5,10.8-7.1,21.5-10.5,32.3c-0.5,1.6-1.2,2.2-3,2.2
		c-27.2-0.1-54.4,0-81.5-0.1c-5.6,0-11.2-0.6-16.6-2.4c-13.2-4.4-18.7-14.5-14.7-27.8c3.4-11.2,7.5-22.3,10.8-33.5
		c5.7-19.1,19.3-29,37.9-33.1c5.1-1.1,10.5-1.6,15.7-1.6c26.6-0.2,53.2-0.1,79.7-0.1C778.8,302.3,779.6,302.3,780.7,302.3z"/>
	
		<linearGradient id="SVGID_00000068648071520260787920000012683544025583704755_" gradientUnits="userSpaceOnUse" x1="544.5931" y1="263.5389" x2="546.7531" y2="479.5389">
		<stop  offset="2.000000e-02" style="stop-color:#878787"/>
		<stop  offset="0.24" style="stop-color:#6E6E6E"/>
		<stop  offset="0.38" style="stop-color:#B1B1B1"/>
		<stop  offset="0.47" style="stop-color:#D7D7D7"/>
		<stop  offset="0.76" style="stop-color:#848484"/>
		<stop  offset="1" style="stop-color:#000000"/>
	</linearGradient>
	<path style="fill:url(#SVGID_00000068648071520260787920000012683544025583704755_);" d="M599.3,302.4c1.3,14.1,2.5,27.9,3.8,41.8
		c1.3,14.5,2.6,29,3.9,43.5c0.3,3.7,0.6,7.3,0.9,11c0.1,1.4-0.3,2-1.8,2c-9.4-0.1-18.9-0.2-28.3-0.2c-1.1,0-1.5-0.3-1.6-1.5
		c-1.2-14.6-2.4-29.1-3.6-43.7c-0.8-9.4-1.6-18.7-2.5-28.8c-0.8,1.1-1.4,1.8-1.9,2.5c-17,23.1-34,46.2-50.9,69.4
		c-1.2,1.6-2.4,2.3-4.4,2.3c-9.4-0.1-18.7,0-28.7,0c0.7-1,1-1.6,1.3-2.1c23.4-31.7,46.9-63.4,70.3-95.1c0.4-0.6,1.3-1.2,2-1.2
		c13.5-0.1,27-0.1,40.6,0C598.5,302.3,598.8,302.4,599.3,302.4z"/>
	
		<linearGradient id="SVGID_00000174596740573428540260000015056105052684890517_" gradientUnits="userSpaceOnUse" x1="98.7671" y1="267.9971" x2="100.9271" y2="483.9971">
		<stop  offset="2.000000e-02" style="stop-color:#878787"/>
		<stop  offset="0.24" style="stop-color:#6E6E6E"/>
		<stop  offset="0.38" style="stop-color:#B1B1B1"/>
		<stop  offset="0.47" style="stop-color:#D7D7D7"/>
		<stop  offset="0.76" style="stop-color:#848484"/>
		<stop  offset="1" style="stop-color:#000000"/>
	</linearGradient>
	<path style="fill:url(#SVGID_00000174596740573428540260000015056105052684890517_);" d="M165.8,340.5c-0.5,1.7-1,3.1-1.4,4.5
		c-1.6,5.1-3.4,10.1-4.8,15.3c-0.6,2-1.6,2.4-3.4,2.4c-24.4-0.1-48.9-0.1-73.3,0c-6.5,0-4.8-0.8-6.8,4.9c-1.2,3.4-2.3,6.8-3.4,10.3
		c-0.1,0.2,0,0.4-0.1,0.9c26.8,0,53.5,0,80.5,0c-0.2,0.9-0.3,1.5-0.5,2c-1.9,6-3.8,12.1-5.7,18.1c-0.4,1.4-1.1,2-2.7,2
		c-36.3-0.1-72.6-0.2-108.8-0.3c-0.5,0-0.9-0.1-1.7-0.1c0.2-0.8,0.3-1.6,0.6-2.3c6-18.4,12-36.8,17.8-55.2c0.6-1.9,1.5-2.4,3.4-2.4
		c35.9,0.1,71.9,0,107.8,0C164.1,340.5,164.8,340.5,165.8,340.5z"/>
	
		<linearGradient id="SVGID_00000089576314050106463400000015422057354054396582_" gradientUnits="userSpaceOnUse" x1="450.0433" y1="264.4844" x2="452.2033" y2="480.4844">
		<stop  offset="2.000000e-02" style="stop-color:#878787"/>
		<stop  offset="0.24" style="stop-color:#6E6E6E"/>
		<stop  offset="0.38" style="stop-color:#B1B1B1"/>
		<stop  offset="0.47" style="stop-color:#D7D7D7"/>
		<stop  offset="0.76" style="stop-color:#848484"/>
		<stop  offset="1" style="stop-color:#000000"/>
	</linearGradient>
	<path style="fill:url(#SVGID_00000089576314050106463400000015422057354054396582_);" d="M516.5,302.3c-2.3,7.1-4.4,14-6.8,20.8
		c-0.2,0.6-1.4,1.1-2.2,1.1c-8.2,0.1-16.3,0.1-24.5,0.1c-5.8,0-11.7,0.1-17.5,0c-2.2-0.1-3,0.7-3.6,2.7c-7.6,23.5-15.2,47-22.9,70.4
		c-1.3,3.9-0.5,3.4-4.6,3.4c-8.7,0-17.4-0.1-26.1-0.2c-0.5,0-1.1-0.1-2-0.1c8.2-25.4,16.4-50.6,24.6-76.1c-15.6,0-30.7,0-46.5,0
		c2.5-7.5,4.9-14.7,7.2-21.9C433.3,302.3,474.8,302.3,516.5,302.3z"/>
	
		<linearGradient id="SVGID_00000040575724744261286790000011931800338018792636_" gradientUnits="userSpaceOnUse" x1="117.771" y1="267.8071" x2="119.931" y2="483.8071">
		<stop  offset="2.000000e-02" style="stop-color:#878787"/>
		<stop  offset="0.24" style="stop-color:#6E6E6E"/>
		<stop  offset="0.38" style="stop-color:#B1B1B1"/>
		<stop  offset="0.47" style="stop-color:#D7D7D7"/>
		<stop  offset="0.76" style="stop-color:#848484"/>
		<stop  offset="1" style="stop-color:#000000"/>
	</linearGradient>
	<path style="fill:url(#SVGID_00000040575724744261286790000011931800338018792636_);" d="M58.4,324c2.5-7.4,4.8-14.6,7.2-21.7
		c37.5,0,74.9,0,112.5,0c-0.2,0.7-0.3,1.4-0.5,2c-1.9,6.1-3.9,12.2-5.8,18.3c-0.4,1.2-0.9,1.7-2.2,1.7c-36.6-0.1-73.2-0.1-109.9-0.2
		C59.3,324.1,59,324.1,58.4,324z"/>
	
		<linearGradient id="SVGID_00000082357122114860322800000003788306538847311508_" gradientUnits="userSpaceOnUse" x1="223.388" y1="266.7509" x2="225.548" y2="482.7509">
		<stop  offset="2.000000e-02" style="stop-color:#878787"/>
		<stop  offset="0.24" style="stop-color:#6E6E6E"/>
		<stop  offset="0.38" style="stop-color:#B1B1B1"/>
		<stop  offset="0.47" style="stop-color:#D7D7D7"/>
		<stop  offset="0.76" style="stop-color:#848484"/>
		<stop  offset="1" style="stop-color:#000000"/>
	</linearGradient>
	<path style="fill:url(#SVGID_00000082357122114860322800000003788306538847311508_);" d="M408.6,427.8c-0.6,2.1-1.2,3.9-1.8,6
		c3.3,0,6.3,0,9.3,0c0.3,0,0.8-0.4,1-0.8c0.3-0.5,0.4-1.1,0.6-1.7c1.4-4.1,1.4-4.1,6.1-3.4c-1.6,5-3.2,9.9-4.8,14.8
		c-0.1,0.4-0.7,0.8-1.2,0.8c-1.2,0.1-2.5,0-4.1,0c0.6-2.2,1.2-4,1.8-6.2c-3.2,0-6.2,0-9.2,0c-0.4,0-0.8,0.6-1,1
		c-0.3,0.5-0.4,1.1-0.6,1.7c-1.3,3.9-1.7,4.1-6,3.2c1.3-4,2.5-7.9,3.9-12.3c-125.6,0-250.8,0-376.2,0c0-1.2,0-2.1,0-3.1
		C153.7,427.8,281,427.8,408.6,427.8z"/>
	
		<linearGradient id="SVGID_00000126325669371206297310000008991008706847700915_" gradientUnits="userSpaceOnUse" x1="548.158" y1="263.5032" x2="550.318" y2="479.5032">
		<stop  offset="2.000000e-02" style="stop-color:#878787"/>
		<stop  offset="0.24" style="stop-color:#6E6E6E"/>
		<stop  offset="0.38" style="stop-color:#B1B1B1"/>
		<stop  offset="0.47" style="stop-color:#D7D7D7"/>
		<stop  offset="0.76" style="stop-color:#848484"/>
		<stop  offset="1" style="stop-color:#000000"/>
	</linearGradient>
	<path style="fill:url(#SVGID_00000126325669371206297310000008991008706847700915_);" d="M530,400.4c1.9-6.2,3.8-12.1,5.6-18
		c1.2-3.8,1.2-3.8,5.3-3.7c8.5,0,17,0.1,25.5,0.1c0.7,0,1.4,0,2.4,0c-1.9,5.9-3.6,11.5-5.5,17.2c-1.6,4.8-1.6,4.8-6.6,4.8
		c-8.4-0.1-16.7-0.1-25.1-0.2C531.3,400.5,530.8,400.4,530,400.4z"/>
	
		<linearGradient id="SVGID_00000137822551138825419660000007823038990723010710_" gradientUnits="userSpaceOnUse" x1="638.5509" y1="262.5993" x2="640.7109" y2="478.5993">
		<stop  offset="2.000000e-02" style="stop-color:#878787"/>
		<stop  offset="0.24" style="stop-color:#6E6E6E"/>
		<stop  offset="0.38" style="stop-color:#B1B1B1"/>
		<stop  offset="0.47" style="stop-color:#D7D7D7"/>
		<stop  offset="0.76" style="stop-color:#848484"/>
		<stop  offset="1" style="stop-color:#000000"/>
	</linearGradient>
	<path style="fill:url(#SVGID_00000137822551138825419660000007823038990723010710_);" d="M646,443.6c1.1-3.3,2-6.2,2.9-9
		c-0.1-0.1-0.2-0.2-0.3-0.3c-1.1,1-2.1,2-3.2,3c-1.9,1.8-3.7,3.7-5.6,5.5c-1.7,1.6-3.1,1.2-3.9-0.9c-1-2.4-1.9-4.8-2.9-7.3
		c0-0.1-0.2-0.1-0.6-0.3c-0.7,2.2-1.4,4.3-2.1,6.4c-1.2,3.4-0.5,2.8-4.1,2.9c-0.5,0-1-0.1-1.9-0.1c1.1-3.5,2.2-6.9,3.3-10.2
		c0.2-0.6,0.4-1.3,0.7-1.9c1.2-3.7,1.2-3.6,5.2-3.7c1.7-0.1,2.5,0.6,3,2.1c0.9,2.5,2,4.9,3.1,7.8c2.4-2.2,4.6-4.3,6.8-6.4
		c0.2-0.2,0.5-0.4,0.7-0.7c2.2-3.2,5.4-3.1,9-2.6c-1.6,5-3.2,10-4.8,14.9c-0.1,0.4-0.8,0.7-1.2,0.8
		C648.9,443.7,647.7,443.6,646,443.6z"/>
	
		<linearGradient id="SVGID_00000034792177890807917920000001525651519641952407_" gradientUnits="userSpaceOnUse" x1="686.9502" y1="262.1153" x2="689.1102" y2="478.1153">
		<stop  offset="2.000000e-02" style="stop-color:#878787"/>
		<stop  offset="0.24" style="stop-color:#6E6E6E"/>
		<stop  offset="0.38" style="stop-color:#B1B1B1"/>
		<stop  offset="0.47" style="stop-color:#D7D7D7"/>
		<stop  offset="0.76" style="stop-color:#848484"/>
		<stop  offset="1" style="stop-color:#000000"/>
	</linearGradient>
	<path style="fill:url(#SVGID_00000034792177890807917920000001525651519641952407_);" d="M693,437.4c1-2.8,1.9-5.1,2.5-7.5
		c0.5-1.8,1.3-2.6,3.2-2.3c0.8,0.1,1.6,0,2.6,0c-1.6,5.1-3.2,10-4.8,14.9c-0.1,0.3-0.4,0.7-0.7,0.9c-1.6,0.8-5-0.1-6-1.6
		c-1.8-2.6-3.6-5.3-5.6-8.3c-0.9,2.7-1.8,5-2.3,7.4c-0.5,2-1.5,3-3.6,2.6c-0.6-0.1-1.3,0-2.3,0c0.2-0.9,0.4-1.5,0.6-2.1
		c1.3-4,2.7-8.1,4-12.1c0.4-1.2,0.9-1.6,2.2-1.7c2.5-0.2,4.2,0.5,5.5,2.9C689.5,432.8,691.2,434.8,693,437.4z"/>
	
		<linearGradient id="SVGID_00000146494874078571815090000009273090055612405661_" gradientUnits="userSpaceOnUse" x1="543.4147" y1="263.5507" x2="545.5747" y2="479.5507">
		<stop  offset="2.000000e-02" style="stop-color:#878787"/>
		<stop  offset="0.24" style="stop-color:#6E6E6E"/>
		<stop  offset="0.38" style="stop-color:#B1B1B1"/>
		<stop  offset="0.47" style="stop-color:#D7D7D7"/>
		<stop  offset="0.76" style="stop-color:#848484"/>
		<stop  offset="1" style="stop-color:#000000"/>
	</linearGradient>
	<path style="fill:url(#SVGID_00000146494874078571815090000009273090055612405661_);" d="M548.8,438c1.3,1.6,2.8,3.4,4.5,5.4
		c-3.4,0.2-6.4,1-8.5-2.3c-0.7-1.2-1.8-2.2-2.8-3.2c-0.9-1-1.7-0.9-2.2,0.5c-0.2,0.5-0.3,1-0.5,1.5c-1.3,4.1-1.4,4.2-6.2,3.4
		c1-3,1.9-5.9,3-8.8c0.1-0.4,1.1-0.6,1.7-0.6c3.1-0.1,6.1,0,9.2,0c0.6,0,1.2,0,1.8,0c1.2-0.1,2.7,0,2.6-1.7c0-0.4-1.7-0.9-2.6-1
		c-3.8-0.1-7.6,0-11.4,0c0.4-3.3,0.5-3.4,3.3-3.4c3.9,0,7.9,0,11.8,0.1c1.8,0,3.5,0.5,4.2,2.4c0.7,1.9,0,3.8-1.6,4.8
		C553.4,436.2,551.1,436.9,548.8,438z"/>
	
		<linearGradient id="SVGID_00000160162900338973597770000000679766877288625822_" gradientUnits="userSpaceOnUse" x1="611.3444" y1="262.8714" x2="613.5044" y2="478.8714">
		<stop  offset="2.000000e-02" style="stop-color:#878787"/>
		<stop  offset="0.24" style="stop-color:#6E6E6E"/>
		<stop  offset="0.38" style="stop-color:#B1B1B1"/>
		<stop  offset="0.47" style="stop-color:#D7D7D7"/>
		<stop  offset="0.76" style="stop-color:#848484"/>
		<stop  offset="1" style="stop-color:#000000"/>
	</linearGradient>
	<path style="fill:url(#SVGID_00000160162900338973597770000000679766877288625822_);" d="M621.4,443.6c-2.2,0-3.9,0.1-5.5-0.1
		c-0.6-0.1-1.3-0.6-1.8-1.1c-1.3-1.4-2.6-2.9-3.9-4.3c-1.2-1.3-1.9-1.2-2.5,0.6c-0.1,0.4-0.3,0.8-0.4,1.1c-1.3,4.2-1.3,4.2-6.2,3.5
		c1-3,1.9-5.9,3-8.8c0.1-0.4,1.1-0.6,1.7-0.6c3.1-0.1,6.1,0,9.2,0c0.5,0,1.1,0,1.6,0c1.2-0.1,2.8,0,2.8-1.7c0-0.3-1.8-0.9-2.8-1
		c-3-0.1-6,0-9-0.1c-0.7,0-1.4-0.1-2.1-0.1c0.1-3,0.4-3.3,3.1-3.3c4,0,8,0,12,0.1c1.8,0,3.4,0.5,4.1,2.3c0.8,1.9,0,3.7-1.5,4.8
		c-1.4,1.1-3.3,1.6-5,2.3c-0.5,0.2-1.1,0.2-2,0.3C618,439.6,619.5,441.4,621.4,443.6z"/>
	
		<linearGradient id="SVGID_00000031904827165887338300000006377851972887122829_" gradientUnits="userSpaceOnUse" x1="588.6996" y1="263.0978" x2="590.8596" y2="479.0978">
		<stop  offset="2.000000e-02" style="stop-color:#878787"/>
		<stop  offset="0.24" style="stop-color:#6E6E6E"/>
		<stop  offset="0.38" style="stop-color:#B1B1B1"/>
		<stop  offset="0.47" style="stop-color:#D7D7D7"/>
		<stop  offset="0.76" style="stop-color:#848484"/>
		<stop  offset="1" style="stop-color:#000000"/>
	</linearGradient>
	<path style="fill:url(#SVGID_00000031904827165887338300000006377851972887122829_);" d="M592.9,427.8c1.7,0,3.4-0.1,5,0
		c3.1,0.3,4.3,2.2,3.5,5.1c-0.4,1.4-0.9,2.8-1.3,4.2c-1,3.9-3.7,6.1-7.6,6.3c-3.3,0.2-6.7,0.2-10-0.2c-2.8-0.3-3.8-2-3.1-4.7
		c0.6-2.1,1.2-4.2,2.1-6.3c1.2-3,3.8-4.2,6.8-4.5C589.8,427.7,591.4,427.8,592.9,427.8z M591.8,431.1c-5,0-5,0-6.4,4.6
		c-0.2,0.6-0.4,1.3-0.6,1.9c-0.6,1.6,0.2,2.3,1.6,2.4c1.1,0.1,2.1,0.1,3.2,0.1c4.1,0,4.5-0.3,5.7-4.1
		C597,431.1,597,431.1,591.8,431.1z"/>
	
		<linearGradient id="SVGID_00000158708014789084066600000013334914615169372863_" gradientUnits="userSpaceOnUse" x1="441.484" y1="264.5699" x2="443.644" y2="480.5699">
		<stop  offset="2.000000e-02" style="stop-color:#878787"/>
		<stop  offset="0.24" style="stop-color:#6E6E6E"/>
		<stop  offset="0.38" style="stop-color:#B1B1B1"/>
		<stop  offset="0.47" style="stop-color:#D7D7D7"/>
		<stop  offset="0.76" style="stop-color:#848484"/>
		<stop  offset="1" style="stop-color:#000000"/>
	</linearGradient>
	<path style="fill:url(#SVGID_00000158708014789084066600000013334914615169372863_);" d="M455,427.8c-0.5,3.4-0.5,3.4-3.5,3.4
		c-3.1,0-6.3,0-9.4,0c-2.1,0-3.5,0.7-3.9,2.8c-0.3,1.3-0.8,2.6-1.2,3.8c-0.5,1.4,0.1,2.2,1.4,2.3c2.3,0.1,4.7,0.2,7,0
		c0.5,0,1.2-1,1.4-1.6c1.5-4.1,1.5-4.1,6.3-3.7c-0.9,2.7-1.7,5.4-2.7,8.1c-0.1,0.4-0.9,0.7-1.4,0.7c-4.3,0.1-8.6,0.2-12.8,0
		c-4.3-0.2-5.5-2.2-4.1-6.3c0.4-1.3,0.8-2.5,1.3-3.8c1.2-3.6,3.8-5.6,7.6-5.7C445.5,427.7,450.2,427.8,455,427.8z"/>
	
		<linearGradient id="SVGID_00000055670916726191857390000000726317075088105397_" gradientUnits="userSpaceOnUse" x1="464.1522" y1="264.3433" x2="466.3122" y2="480.3433">
		<stop  offset="2.000000e-02" style="stop-color:#878787"/>
		<stop  offset="0.24" style="stop-color:#6E6E6E"/>
		<stop  offset="0.38" style="stop-color:#B1B1B1"/>
		<stop  offset="0.47" style="stop-color:#D7D7D7"/>
		<stop  offset="0.76" style="stop-color:#848484"/>
		<stop  offset="1" style="stop-color:#000000"/>
	</linearGradient>
	<path style="fill:url(#SVGID_00000055670916726191857390000000726317075088105397_);" d="M453.3,443.3c1.6-4.9,3.2-9.9,4.9-14.8
		c0.1-0.4,0.8-0.7,1.2-0.7c1.2-0.1,2.4,0,3.9,0c-0.6,2.1-1.1,4-1.8,6.1c3.2,0,6.2,0,9.2,0c0.4,0,0.9-0.5,1.1-0.9
		c0.3-0.6,0.5-1.2,0.7-1.9c1.2-3.7,1.7-3.9,6-3c-1.6,4.9-3.1,9.8-4.7,14.6c-0.1,0.4-0.7,0.9-1.1,0.9c-1.3,0.1-2.6,0-4.2,0
		c0.6-2.2,1.2-4,1.8-6.2c-3.2,0-6.2,0-9.1,0c-0.4,0-0.9,0.5-1.1,0.9c-0.3,0.6-0.4,1.3-0.6,1.9C458.2,444,457.6,444.3,453.3,443.3z"
		/>
	
		<linearGradient id="SVGID_00000176038230588624269740000007552640686656769439_" gradientUnits="userSpaceOnUse" x1="710.1265" y1="261.8835" x2="712.2865" y2="477.8835">
		<stop  offset="2.000000e-02" style="stop-color:#878787"/>
		<stop  offset="0.24" style="stop-color:#6E6E6E"/>
		<stop  offset="0.38" style="stop-color:#B1B1B1"/>
		<stop  offset="0.47" style="stop-color:#D7D7D7"/>
		<stop  offset="0.76" style="stop-color:#848484"/>
		<stop  offset="1" style="stop-color:#000000"/>
	</linearGradient>
	<path style="fill:url(#SVGID_00000176038230588624269740000007552640686656769439_);" d="M717.8,433.7c0.6-2.3-0.8-2.6-2.4-2.6
		c-1.6,0-3.3-0.2-4.8,0.1c-1.1,0.2-2.3,1.1-2.8,2c-0.8,1.3-1.1,3-1.5,4.5c-0.4,1.3,0.1,2.2,1.5,2.2c2,0.1,4,0.1,6,0
		c0.6,0,1.4-0.3,1.6-0.7c1.4-2.8,3.8-1.7,5.9-1.8c-0.3,2.9-2.4,5.4-5.6,5.7c-3.8,0.4-7.7,0.4-11.6,0.2c-2.9-0.2-3.9-2.2-3-5
		c0.5-1.7,1.1-3.3,1.6-4.9c1-3.4,3.4-5.1,6.7-5.5c3.4-0.3,6.8-0.2,10.2,0c1.1,0.1,2.5,0.9,3.1,1.8c0.5,0.8,0.4,2.3,0.1,3.4
		c-0.1,0.4-1.4,0.5-2.2,0.6C719.8,433.8,719,433.7,717.8,433.7z"/>
	
		<linearGradient id="SVGID_00000062914977132537073330000013497464302546504619_" gradientUnits="userSpaceOnUse" x1="498.8292" y1="263.9965" x2="500.9892" y2="479.9965">
		<stop  offset="2.000000e-02" style="stop-color:#878787"/>
		<stop  offset="0.24" style="stop-color:#6E6E6E"/>
		<stop  offset="0.38" style="stop-color:#B1B1B1"/>
		<stop  offset="0.47" style="stop-color:#D7D7D7"/>
		<stop  offset="0.76" style="stop-color:#848484"/>
		<stop  offset="1" style="stop-color:#000000"/>
	</linearGradient>
	<path style="fill:url(#SVGID_00000062914977132537073330000013497464302546504619_);" d="M488.6,443.3c0.9-2.8,1.7-5.5,2.7-8.1
		c0.2-0.6,1.3-1.2,2.1-1.2c3.4-0.1,6.8,0,10.2-0.1c1.3,0,3.4,0.2,3.3-1.6c-0.1-1.7-2-1-3.2-1.1c-3.6-0.1-7.2,0-10.8,0
		c0.3-3.3,0.4-3.4,3.3-3.4c3.9,0,7.9,0,11.8,0.1c1.8,0,3.5,0.5,4.2,2.4c0.7,1.9-0.2,3.4-1.5,4.7c-1.7,1.7-3.8,2.4-6.2,2.4
		c-2.5,0-5.1-0.1-7.6,0c-0.6,0-1.3,0.8-1.8,1.3c-0.3,0.3-0.3,0.9-0.5,1.3C493.4,444,493.2,444,488.6,443.3z"/>
	
		<linearGradient id="SVGID_00000164498432917755992660000015067359467861239709_" gradientUnits="userSpaceOnUse" x1="661.8952" y1="262.3658" x2="664.0552" y2="478.3658">
		<stop  offset="2.000000e-02" style="stop-color:#878787"/>
		<stop  offset="0.24" style="stop-color:#6E6E6E"/>
		<stop  offset="0.38" style="stop-color:#B1B1B1"/>
		<stop  offset="0.47" style="stop-color:#D7D7D7"/>
		<stop  offset="0.76" style="stop-color:#848484"/>
		<stop  offset="1" style="stop-color:#000000"/>
	</linearGradient>
	<path style="fill:url(#SVGID_00000164498432917755992660000015067359467861239709_);" d="M673.7,443.5c-1.8,0-3.3,0-5.1,0
		c-0.3-3.8-0.7-7.6-1-11.4c-0.1-0.1-0.3-0.1-0.4-0.2c-0.6,0.8-1.2,1.5-1.7,2.3c-1.6,2.2-3.4,4.3-4.8,6.7c-1.6,2.9-3.9,3-6.9,2.5
		c0.4-0.6,0.7-1.2,1.1-1.7c3.2-4.3,6.5-8.5,9.5-12.9c0.9-1.3,2.1-1.2,3.3-1.2c4.3,0,4.4,0,4.8,4.2
		C672.9,435.7,673.3,439.5,673.7,443.5z"/>
	
		<linearGradient id="SVGID_00000081611376385157127560000010884708345083543740_" gradientUnits="userSpaceOnUse" x1="520.6519" y1="263.7783" x2="522.812" y2="479.7779">
		<stop  offset="2.000000e-02" style="stop-color:#878787"/>
		<stop  offset="0.24" style="stop-color:#6E6E6E"/>
		<stop  offset="0.38" style="stop-color:#B1B1B1"/>
		<stop  offset="0.47" style="stop-color:#D7D7D7"/>
		<stop  offset="0.76" style="stop-color:#848484"/>
		<stop  offset="1" style="stop-color:#000000"/>
	</linearGradient>
	<path style="fill:url(#SVGID_00000081611376385157127560000010884708345083543740_);" d="M533,433.9c-0.7,3.4-0.7,3.4-3.7,3.4
		c-2.8,0-5.6,0.1-8.4-0.1c-2-0.1-2.6,0.9-2.5,2.8c4.2,0,8.3,0,12.4,0c0,3.2-0.4,3.5-3.2,3.5c-4.6,0-9.1,0-13.7-0.1
		c-0.6,0-1.2-0.1-2.1-0.1c1-3.1,1.9-6,2.9-8.8c0.1-0.3,0.7-0.7,1.1-0.7C521.5,433.9,527.1,433.9,533,433.9z"/>
	
		<linearGradient id="SVGID_00000074440492284269275500000004299930364518967953_" gradientUnits="userSpaceOnUse" x1="731.3853" y1="261.671" x2="733.5452" y2="477.671">
		<stop  offset="2.000000e-02" style="stop-color:#878787"/>
		<stop  offset="0.24" style="stop-color:#6E6E6E"/>
		<stop  offset="0.38" style="stop-color:#B1B1B1"/>
		<stop  offset="0.47" style="stop-color:#D7D7D7"/>
		<stop  offset="0.76" style="stop-color:#848484"/>
		<stop  offset="1" style="stop-color:#000000"/>
	</linearGradient>
	<path style="fill:url(#SVGID_00000074440492284269275500000004299930364518967953_);" d="M729.1,440.1c4.3,0,8.4,0,12.5,0
		c-0.2,3.4-0.4,3.5-3.5,3.5c-4.4,0-8.8,0-13.3-0.1c-0.6,0-1.3-0.1-2.3-0.1c1-3.1,1.9-5.9,2.9-8.7c0.1-0.4,0.6-0.8,1-0.8
		c5.7,0,11.5,0,17.2,0c-0.4,3.4-0.4,3.4-3.5,3.4c-2.9,0-5.8,0.1-8.6-0.1C729.7,437.2,729.1,438,729.1,440.1z"/>
	
		<linearGradient id="SVGID_00000098189831927169135870000016800690421200974014_" gradientUnits="userSpaceOnUse" x1="565.2804" y1="263.332" x2="567.4404" y2="479.332">
		<stop  offset="2.000000e-02" style="stop-color:#878787"/>
		<stop  offset="0.24" style="stop-color:#6E6E6E"/>
		<stop  offset="0.38" style="stop-color:#B1B1B1"/>
		<stop  offset="0.47" style="stop-color:#D7D7D7"/>
		<stop  offset="0.76" style="stop-color:#848484"/>
		<stop  offset="1" style="stop-color:#000000"/>
	</linearGradient>
	<path style="fill:url(#SVGID_00000098189831927169135870000016800690421200974014_);" d="M577.6,433.9c-0.6,3.4-0.6,3.4-3.5,3.4
		c-2.9,0-5.9,0-8.8,0c-1.2,0-2.1,0.3-2.3,1.6c-0.1,0.5-0.3,0.9-0.4,1.3c-1.2,3.7-1.9,4.1-6.1,3c0.9-2.8,1.8-5.7,2.8-8.5
		c0.1-0.4,0.8-0.8,1.2-0.8C566.1,433.9,571.8,433.9,577.6,433.9z"/>
	
		<linearGradient id="SVGID_00000135656259395793521810000015571589308716587139_" gradientUnits="userSpaceOnUse" x1="734.5851" y1="261.6389" x2="736.7451" y2="477.6389">
		<stop  offset="2.000000e-02" style="stop-color:#878787"/>
		<stop  offset="0.24" style="stop-color:#6E6E6E"/>
		<stop  offset="0.38" style="stop-color:#B1B1B1"/>
		<stop  offset="0.47" style="stop-color:#D7D7D7"/>
		<stop  offset="0.76" style="stop-color:#848484"/>
		<stop  offset="1" style="stop-color:#000000"/>
	</linearGradient>
	<path style="fill:url(#SVGID_00000135656259395793521810000015571589308716587139_);" d="M726.8,431c0.9-3.3,0.9-3.3,3.9-3.3
		c4.3,0,8.6,0,12.9,0c0.7,0,1.4,0,2.2,0c-0.6,3.4-0.6,3.4-3.8,3.4c-4.3,0-8.6,0-12.9,0C728.4,431.1,727.7,431,726.8,431z"/>
	
		<linearGradient id="SVGID_00000091010532988699656380000014352244433519190914_" gradientUnits="userSpaceOnUse" x1="523.9508" y1="263.7453" x2="526.1108" y2="479.7453">
		<stop  offset="2.000000e-02" style="stop-color:#878787"/>
		<stop  offset="0.24" style="stop-color:#6E6E6E"/>
		<stop  offset="0.38" style="stop-color:#B1B1B1"/>
		<stop  offset="0.47" style="stop-color:#D7D7D7"/>
		<stop  offset="0.76" style="stop-color:#848484"/>
		<stop  offset="1" style="stop-color:#000000"/>
	</linearGradient>
	<path style="fill:url(#SVGID_00000091010532988699656380000014352244433519190914_);" d="M535,427.7c-0.7,3.4-0.7,3.4-3.7,3.4
		c-5,0-10,0-15,0c0.3-3.3,0.4-3.4,3.4-3.4C524.7,427.7,529.8,427.7,535,427.7z"/>
	
		<linearGradient id="SVGID_00000144316223245204122620000003256076140069934466_" gradientUnits="userSpaceOnUse" x1="568.5023" y1="263.2998" x2="570.6623" y2="479.2998">
		<stop  offset="2.000000e-02" style="stop-color:#878787"/>
		<stop  offset="0.24" style="stop-color:#6E6E6E"/>
		<stop  offset="0.38" style="stop-color:#B1B1B1"/>
		<stop  offset="0.47" style="stop-color:#D7D7D7"/>
		<stop  offset="0.76" style="stop-color:#848484"/>
		<stop  offset="1" style="stop-color:#000000"/>
	</linearGradient>
	<path style="fill:url(#SVGID_00000144316223245204122620000003256076140069934466_);" d="M579.5,427.7c-0.4,3.3-0.5,3.4-3.3,3.4
		c-4.5,0-8.9,0-13.4,0c-0.6,0-1.3-0.1-1.9-0.1c0.4-3.3,0.5-3.3,3.3-3.3c4.4,0,8.8,0,13.2,0C578.1,427.7,578.8,427.7,579.5,427.7z"/>
	
		<linearGradient id="SVGID_00000121980770929788883060000009958803934715798167_" gradientUnits="userSpaceOnUse" x1="424.1058" y1="264.7437" x2="426.2658" y2="480.7437">
		<stop  offset="2.000000e-02" style="stop-color:#878787"/>
		<stop  offset="0.24" style="stop-color:#6E6E6E"/>
		<stop  offset="0.38" style="stop-color:#B1B1B1"/>
		<stop  offset="0.47" style="stop-color:#D7D7D7"/>
		<stop  offset="0.76" style="stop-color:#848484"/>
		<stop  offset="1" style="stop-color:#000000"/>
	</linearGradient>
	<path style="fill:url(#SVGID_00000121980770929788883060000009958803934715798167_);" d="M421.7,443.6c1-3.1,1.8-5.8,2.8-8.4
		c0.2-0.6,1.1-1.1,1.7-1.2c1.1-0.2,2.2-0.1,3.7-0.1c-1,3.2-1.9,6.1-2.9,9c-0.1,0.3-0.7,0.7-1,0.7
		C424.7,443.6,423.4,443.6,421.7,443.6z"/>
	
		<linearGradient id="SVGID_00000106116967090074269630000007395616909807722673_" gradientUnits="userSpaceOnUse" x1="662.367" y1="262.3611" x2="664.527" y2="478.3611">
		<stop  offset="2.000000e-02" style="stop-color:#878787"/>
		<stop  offset="0.24" style="stop-color:#6E6E6E"/>
		<stop  offset="0.38" style="stop-color:#B1B1B1"/>
		<stop  offset="0.47" style="stop-color:#D7D7D7"/>
		<stop  offset="0.76" style="stop-color:#848484"/>
		<stop  offset="1" style="stop-color:#000000"/>
	</linearGradient>
	<path style="fill:url(#SVGID_00000106116967090074269630000007395616909807722673_);" d="M661.4,443.3c-0.1-3.2,0.8-3.7,5.4-3
		C666.6,443.8,665.7,444.3,661.4,443.3z"/>
	
		<linearGradient id="SVGID_00000090267037378774905440000003123898752754016140_" gradientUnits="userSpaceOnUse" x1="427.2145" y1="264.7126" x2="429.3745" y2="480.7126">
		<stop  offset="2.000000e-02" style="stop-color:#878787"/>
		<stop  offset="0.24" style="stop-color:#6E6E6E"/>
		<stop  offset="0.38" style="stop-color:#B1B1B1"/>
		<stop  offset="0.47" style="stop-color:#D7D7D7"/>
		<stop  offset="0.76" style="stop-color:#848484"/>
		<stop  offset="1" style="stop-color:#000000"/>
	</linearGradient>
	<path style="fill:url(#SVGID_00000090267037378774905440000003123898752754016140_);" d="M426.1,430.9c0.8-3.5,1.4-3.9,5.6-2.9
		C431,431.1,431.8,431.5,426.1,430.9z"/>
</g>
</svg>
