<?xml version="1.0" encoding="UTF-8"?>
<svg id="Capa_1" data-name="Capa 1" xmlns="http://www.w3.org/2000/svg" xmlns:xlink="http://www.w3.org/1999/xlink" viewBox="0 0 807 746">
  <defs>
    <style>
      .cls-1 {
        fill: url(#Degradado_sin_nombre_16);
      }
    </style>
    <linearGradient id="Degradado_sin_nombre_16" data-name="Degradado sin nombre 16" x1="88" y1="385" x2="719" y2="385" gradientUnits="userSpaceOnUse">
      <stop offset=".02" stop-color="#878787"/>
      <stop offset=".24" stop-color="#6e6e6e"/>
      <stop offset=".38" stop-color="#b1b1b1"/>
      <stop offset=".47" stop-color="#d7d7d7"/>
      <stop offset=".76" stop-color="#848484"/>
      <stop offset="1" stop-color="#000"/>
    </linearGradient>
  </defs>
  <path class="cls-1" d="m404.84,69.7c175.91.57,314.53,140.19,314.16,316.43-.37,174.16-140.63,314.25-314.55,314.16-174.87-.09-316.12-140.99-316.45-315.64-.32-173.68,142.36-315.52,316.84-314.96ZM98.61,381.87c-2.68,167.21,132.53,305.44,301.36,308.08,167.01,2.61,306.47-131.84,309.02-297.92,2.63-171.17-129.79-309.55-298.71-312.15-171.51-2.65-308.91,130.5-311.67,302Zm305.39,294.19c-162.03.46-291.03-128.35-291.3-290.88-.27-162.26,128.43-291.58,290.44-291.82,161.52-.24,292.08,128.18,292.43,287.62.36,165.93-126.78,294.6-291.56,295.07Zm-186.63-290.72c.26,105.26,82.7,186.18,189.48,185.98,101.78-.19,184.93-84.48,184.56-187.08-.38-103.32-84.29-186.71-187.86-186.67-103.42.04-186.43,83.76-186.17,187.76Zm328.19-138.47c14.33-5.35,26.51-9.9,39.37-14.7-2.07,19.39-36.68,32.86-5.12,53.9,22.86-11.33,45.3-22.45,68.37-33.88-16.55-29.53-31.66,3.9-48.06-3.02,6.87-10.56,13.61-20.91,20.12-30.93-13.96-33.3-33.68,1.24-50.15-4.45q21.8-33.2,8.42-45.2c-15.51,20.07-30.95,40.06-46.69,60.43,4.98,6.47,9.01,11.71,13.74,17.85Zm-378.98-11.75c20.6,17.23,39.83,33.32,59.95,50.14,14.65-17.58,28.81-32.2,40.2-48.73,26.46-38.4-29.86-29.89-31.02-53.08-8.73.47-17.52.52-26.15,1.7-2.32.32-4.28,3.97-6.21,6.25-11.59,13.71-23.12,27.47-36.77,43.72Zm194.77-126.45c0,22.85-.28,45.14.32,67.4.08,3.17,4.43,6.22,6.8,9.33,2.81-3.47,7.57-6.69,8.06-10.46,1.18-9.17.39-18.59.39-27.91,7.59,7.67,10,16.9,14.6,24.85,3.22,5.57,9.71,13.25,14.27,12.96,5-.33,10.71-8.06,13.89-13.8,4.58-8.28,7.16-17.67,10.59-26.59,1.68.45,3.35.9,5.03,1.35v39.54c16.65-4.77,21.38-42.4,11.37-77.05-38.02-5.56-23.58,36.2-41.33,46.82-17.12-12.66-3.18-51.95-43.99-46.44Zm44.8,447.91c76.28,9.46,178.7-70.91,169.19-169.94h-169.19v169.94Zm-4.46-344.43c-90.32-5.86-184.22,89.92-168.06,170.43h168.06v-170.43Zm-151.75,22.44c1.9-3.45-2.86-10.56-4.59-16-8.46,7.82-18,14.82-24.78,23.9-2.29,3.07,2.44,11.38,5.15,21.93,11.47-13.64,19.31-20.93,24.22-29.83Zm-25.09-19.47c1.96-2.85,1.3-8.21.32-12.03-.37-1.43-6.33-3.32-7.61-2.31-9.59,7.62-18.64,15.91-28.58,24.63,6.93,6.29,10.57,9.6,15.42,14.01,8.21-9.53,15.03-16.42,20.45-24.29Z"/>
</svg>