<?xml version="1.0" encoding="UTF-8"?>
<svg id="Capa_1" data-name="Capa 1" xmlns="http://www.w3.org/2000/svg" xmlns:xlink="http://www.w3.org/1999/xlink" viewBox="0 0 807 746">
  <defs>
    <style>
      .cls-1 {
        fill: url(#Degradado_sin_nombre_16);
      }
    </style>
    <linearGradient id="Degradado_sin_nombre_16" data-name="Degradado sin nombre 16" x1="158" y1="373" x2="649" y2="373" gradientUnits="userSpaceOnUse">
      <stop offset=".02" stop-color="#878787"/>
      <stop offset=".24" stop-color="#6e6e6e"/>
      <stop offset=".38" stop-color="#b1b1b1"/>
      <stop offset=".47" stop-color="#d7d7d7"/>
      <stop offset=".76" stop-color="#848484"/>
      <stop offset="1" stop-color="#000"/>
    </linearGradient>
  </defs>
  <path class="cls-1" d="m410.84,692.22h-6c-5.56-1.34-11.26-2.29-16.66-4.11-15.9-5.37-30.91-12.75-45.47-21.07-28.13-16.08-53.48-35.8-76.5-58.54-39.97-39.48-71.26-84.65-89.89-138.04-8.47-24.26-13.65-49.18-14.09-74.92-.52-30.88-.59-61.76-.97-92.64-.33-26.42-.84-52.84-1.24-79.27-.48-31.54-.91-63.07-1.41-94.61-.04-2.84-.4-5.68-.62-8.52v-15.34c.98-.53,1.93-1.1,2.93-1.57,27.88-13.25,57-23.11,86.93-30.3,21.64-5.2,43.54-9.54,65.52-13.05,16.95-2.71,34.21-3.57,51.33-5.17,5.8-.54,11.63-.86,17.44-1.28,13.79,0,27.57,0,41.36,0,.84.19,1.68.49,2.53.54,12.96.67,25.92,1.18,38.87,1.97,26.12,1.6,52.05,4.74,77.83,9.25,36.33,6.35,72.04,14.87,106.26,28.94v34.02c-.19,1.06-.53,2.12-.54,3.18-.26,22.77-.45,45.55-.73,68.32-.38,31.98-.86,63.96-1.23,95.94-.38,33.44-.66,66.89-1.02,100.33-.19,17.37-1.95,34.58-6.69,51.32-3.02,10.66-6.4,21.25-10.39,31.59-4.75,12.33-9.84,24.58-15.66,36.44-5.27,10.74-11.59,20.98-17.7,31.3-4.59,7.76-9.02,15.71-14.51,22.81-10.16,13.14-20.66,26.13-33.29,37.03-13.4,11.57-26.83,23.19-41.02,33.74-21.55,16.02-44.54,29.88-69.02,41.06-8.62,3.93-17.57,7.13-26.36,10.67Zm-1.62-9.55v-195.94c4.13-.5,7.77-.8,11.36-1.39,15.49-2.55,30.15-7.23,43.02-16.65,2.46-1.8,5.25-3.46,8.15-4.27,17.17-4.84,34.29-9.97,51.67-13.92,17.97-4.08,35.74-2.21,52.79,5.15,9.2,3.97,16.78,10.3,24.45,16.54,1.21.98,2.91,1.37,4.52,2.09-.4,2.41-1.67,2.75-3.75,1-1.78-1.5-3.63-2.92-5.39-4.44-18.12-15.52-39.27-21.75-62.72-19.16-11.06,1.22-22.1,3.76-32.79,6.9-14.52,4.26-29.89,6.33-42.51,16.07-4.87,3.76-10.97,5.91-16.49,8.78,3.07,4.02,4.17,8.29,2.08,9.65-4.66,3.03-7.4-.96-10.39-3.5-5.09,6.55-5.99,6.4-10.73-1.73-3.52.47-7.1.96-10.71,1.44v192.46c1.29-.39,2.37-.58,3.32-1.03,13.04-6.12,26.37-11.72,39.03-18.56,24.64-13.32,48.06-28.61,69.11-47.17,11.96-10.55,23.72-21.4,34.63-33.01,15.37-16.35,26.76-35.64,37.6-55.2,9.53-17.18,18-34.82,24.81-53.28,7.56-20.49,13.42-41.36,15.42-63.17.4-4.37.43-8.77.62-12.97h-132.3c-2.51,12.99-2.27,26.14-10.48,36.86,4.77-12.42,7.53-25.29,8.13-38.94h134.71v-8.37h-136.21v-63.08h137.18v-8.27h-137.3v-50.49h137.99v-8.55h-228.04v-57.46h228.78v-8.15h-229.19v-56.31c78.9,1.04,155.77,11.93,229.41,42.31-.66-8.8-1.43-17.15-1.9-25.52-.77-13.84-1.39-27.68-1.96-41.52-.23-5.61-.09-5.64-5.41-7.41-39.19-13.06-79.56-20.64-120.4-26.01-14.05-1.85-28.15-3.35-42.27-4.53-15.34-1.29-30.72-2.46-46.1-2.89-23.64-.65-47.28.04-70.79,2.87-20.01,2.41-40.13,4.38-59.94,7.96-24.2,4.37-48.22,9.81-72.14,15.57-16.18,3.9-31.93,9.45-46.84,17.08-2.35,1.2-3.38,2.72-3.38,5.38,0,5.31-.37,10.62-.45,15.94-.23,15.66-.4,31.32-.57,46.97-.01,1.04.19,2.09.32,3.32.85-.29,1.28-.4,1.67-.58,17.22-8.33,35.17-14.71,53.46-20.22,23.82-7.18,48.01-12.84,72.47-17.13,17.88-3.14,35.9-5.68,53.95-7.59,15.96-1.69,32.05-2.12,48.08-3.13,2.87-.18,4.03.76,4.02,3.97-.12,37.91-.07,75.83-.07,113.74,0,.67.21,1.46-.07,1.97-.39.69-1.16,1.16-1.77,1.72-.3-.18-.59-.35-.89-.53v-117.1c-5.94,0-11.47-.22-16.98.05-10.84.53-21.74.76-32.48,2.15-22.16,2.87-44.34,5.89-66.33,9.82-38.81,6.93-76.27,18.51-112.26,34.69-1.76.79-2.52,1.71-2.45,3.72.23,7.1.29,14.22.4,21.32.17,10.78.33,21.56.48,32.33.27,20.31.59,40.63.78,60.94.18,19.1.21,38.2.36,57.3.08,10.33.26,20.65.41,30.98.01.85.18,1.69.33,3h139.23c.87,21.06,7.95,39.31,21.66,55.62h-151.63c.69,8.09,1.36,8.74,8.75,8.74,48.25,0,96.51.03,144.76-.07,3.25,0,5.61,1.02,8.02,3.04,12.98,10.87,27.68,18.4,44.31,21.89,5.05,1.06,10.21,1.58,15.32,2.35v30.93h-193.05c1.71,6.19,4.9,8.48,11.48,8.45,59.37-.32,118.75-.19,178.12-.21,2.13,0,3.76-.16,3.76,2.98,0,17.55.24,35.1.38,52.65,0,.98-.1,1.95-.17,3.44h-145.67c1.6,1.73,2.75,2.65,3.48,3.84,2.47,4.04,6.1,4.57,10.51,4.56,42.36-.14,84.72-.08,127.09-.08,1.3,0,2.61,0,4.32,0,0,1.57,0,2.76,0,3.95,0,26.13,0,52.26,0,78.39q0,7.28,8.28,6.71Zm-93.2-418.06h177.94c0,44.67,1.12,89.24-.36,133.73-1.14,34.35-18.89,60.28-50.45,74.09-35.09,15.36-68.38,9.46-97.5-15.43-15.77-13.48-25.04-31.2-28.48-51.79-.26-1.53-.39-3.09-.39-4.64-.14-33.24-.23-66.47-.38-99.71-.05-10.89-.25-21.77-.37-32.66-.01-1.09,0-2.18,0-3.59Zm171.95,5.64h-166.05c0,1.48,0,2.8,0,4.12.08,40.35.1,80.71.31,121.06.02,4.82.62,9.74,1.71,14.44,9.92,42.4,51.01,71.06,96.61,63.83,41.1-6.52,67.93-41.72,68.01-80.24.08-36.56-.27-73.12-.42-109.69-.01-3.34,0-6.67,0-10.01,0-1.09-.1-2.17-.16-3.51Zm-233.23-90.27c-2.86,6.67-2.7,13.61-2.6,20.61.01.9-.67,2.38-1.37,2.63-9.3,3.25-18.66,6.33-28.61,9.65-3.75-15.4,4.85-25.47,14.21-35.43-12.59.82-23.1,11.68-23.54,24.26-.17,4.81.38,9.65.47,14.48.02.98-.26,2.47-.92,2.88-4.03,2.5-8.21,4.76-12.44,7.16-.8-1.52-1.35-2.85-2.15-4.01-.81-1.17-1.75-2.32-2.85-3.22-2.36-1.93-6.28-1.6-8.94.54-2.71,2.18-2.33,4.82-1.06,7.51.68,1.45,1.59,2.8,2.42,4.24-4.16,1.76-8.74,3.01-9.18,7.98-.18,2.02,1.23,5.2,2.89,6.16,5.14,2.95,9.14-.81,13.12-3.49,5.36,5.06,9.83,6.69,13,3.86,5.05-4.51.56-8.78-1.3-13.14.66-.39,1.19-.78,1.78-1.04,15.16-6.55,30.06-13.81,45.54-19.47,23.63-8.64,47.92-14.62,73.49-12.49,9.63.8,18.84,2.98,27.31,7.77,2.66,1.5,5.14,3.32,8.31,5.39-4.08-13.6-15.13-17.05-26.28-20.26,3.6-7.71,9.09-10.54,26.46-13.74-.63-.43-1.02-.75-1.46-.99-11.75-6.4-22.9-4.02-30.19,7.75-3.45,5.57-7.14,7.36-13.25,6.75-5.12-.51-10.34-.1-15.9-.1,1.96-13.99,8.82-24.14,23.2-29.23-7.65-1.99-14.2-1.58-20.43,1.86-7.75,4.28-11.77,11.57-12.66,19.68-.8,7.3-3.97,9.82-10.59,10.75-6.07.85-12.01,2.7-18.89,4.32.47-4.01.54-7.44,1.31-10.7,2.02-8.55,7.2-15.04,14.48-20.19-9.27-2.49-19.81,2.85-23.43,11.28Zm300.6,311.86c-3,2.53-5.27,5.92-8,8.8-.79.83-2.02,1.68-3.09,1.73-2.07.11-4.24-.09-6.24-.63-2.92-.79-7.5.99-8.46-2.29-.79-2.71,1.38-6.28,2.25-9.47.06-.21.24-.37.34-.57,2.97-5.67,7.72-9.49,13.53-12.5-.68-.38-1.03-.65-1.43-.8-7.88-2.93-15.66.47-19.95,9.25-2.17,4.44-3.48,9.31-5.29,13.94-.44,1.13-1.16,2.83-2.03,3.01-5.02,1.09-10.13,1.8-15.33,2.66-2.3-13.65,2.9-23.97,12.96-32.92-8.68.7-14.62,4.51-18.53,11.46-3.56,6.33-4.81,13.26-5.1,20.44-.04,1.1-.68,2.87-1.46,3.15-5.4,1.91-10.91,3.5-16.66,5.29-4.81-10.66-1.33-20.12,3.83-29.81-11.5,4.66-16.03,11.13-15.75,22.43.08,3.17,1.13,6.3,1.58,9.48.13.9,0,2.44-.55,2.75-5.3,2.95-10.72,5.69-16.29,8.59-.42-.88-.61-1.51-.98-2.02-2.03-2.86-3.75-6.06-6.26-8.41-2.5-2.34-6.59-1.33-9.26,1.47-2.18,2.28-2.28,4.72,0,7.8,1.29,1.74,2.93,3.22,4.39,4.79-1.78,2.07-3.75,3.9-5.17,6.09-2.61,4.01-1.92,7.97,1.42,10.34,2.84,2.01,6.57.95,9.49-2.74,1-1.27,1.95-2.57,2.85-3.77,1.7,2.63,2.97,5.14,4.74,7.22,2.48,2.92,5.86,3.03,8.92.72,2.92-2.2,3.43-4.67,1.34-8.12-1.24-2.04-2.9-3.81-4.57-5.97.94-.63,1.88-1.36,2.91-1.95,23.08-13.28,48.01-20.07,74.57-20.02,11.91.02,23.22,3.43,32.77,11.15,2.01,1.62,3.8,3.5,5.91,5.47-.31-6.73-4.71-14.7-11.16-20.6-3.07-2.82-3.39-3.48-.23-6.17,4.25-3.62,9.03-6.63,13.49-9.84-5.28-3.6-10.35-3.74-15.49.59Zm-241.39-234.42c2.68-3.98,6.46-6.34,10.75-8.06,2.55-1.03,5.15-1.93,7.87-2.95-7.94-5.02-16.55-4.34-22.57,2.23-2.88,3.14-5.05,6.98-7.18,10.71-1.03,1.8-2.16,2.53-4.12,2.6-3.76.13-7.51.48-11.28.63-2.71.1-5.43.02-8.53.02,2.58-11.8,8.39-20.7,19.69-25.56-10.1-1.25-18.32,1.54-23.23,10.6-2.24,4.13-3.58,8.78-4.99,13.31-.56,1.81-1.13,2.77-3.1,3.2-5.64,1.22-11.21,2.71-16.82,4.06-.69.17-1.42.15-2.24.22.4-11.3,5.36-20.23,13.5-28.24-8.03-.17-13.2,3.1-16.62,9.2-3.41,6.08-4.27,12.75-4.34,19.62-.01,1.14-.53,2.93-1.33,3.31-5.8,2.71-11.73,5.14-17.99,7.82-3.95-11.33-.86-20.86,6.59-30.34-7.6,1.99-11.97,6.14-14.57,12.26-2.68,6.31-2.56,12.96-2.05,19.63.07.87-.14,2.3-.68,2.58-4.66,2.47-9.42,4.74-14.15,7.07-.92-1.95-1.6-3.59-2.44-5.14-2.03-3.75-4.89-4.72-8.25-2.88-2.84,1.55-3.46,5.08-1.39,8.41.97,1.56,2.12,3.01,3.12,4.43-2.47,1.3-4.88,2.27-6.93,3.73-2.82,2.01-3.47,5.66-1.74,8.65,1.59,2.76,4.26,3.23,6.95,2.19,2.79-1.08,5.37-2.69,8.04-4.06,3.28,6.42,6.88,8.31,11.4,5.91,3.74-1.99,3.41-5.61-1.54-13.89,33.56-16.46,67.49-30.94,106.36-27.51v-11.45c1.49-.86,3.11-1.26,3.8-2.28Zm-73.05,57.61c-1.79,6-1.39,12.03-.25,18.11.21,1.09-.31,3.1-1.08,3.47-4.87,2.36-9.91,4.37-15.25,6.65-4.16-11.13-2.35-21.28,3.36-31.15-9.5.83-15.03,6.22-14.76,15.33.17,5.9,1.81,11.75,2.68,17.64.17,1.15.29,2.94-.35,3.46-2.97,2.42-6.22,4.49-9.46,6.76-1.03-1.41-1.75-2.52-2.61-3.53-.94-1.09-1.95-2.13-3.02-3.11-2.85-2.6-5.79-2.85-8.35-.79-2.75,2.21-3.28,4.88-1.29,8.27,1.14,1.95,2.69,3.66,3.91,5.29-2.5,1.69-5.05,3.09-7.21,4.96-2.72,2.36-2.7,6.12-.37,9.27,1.64,2.21,4.39,2.76,7.47.95,2.81-1.65,5.34-3.77,7.68-5.47,2.3,1.72,4.39,4.35,6.92,4.86,2.54.52,5.95-.4,8.17-1.9,2.38-1.6.96-4.46-.35-6.59-1.19-1.95-2.57-3.78-4.07-5.95,29.69-19.67,61.28-32.32,97.38-30.08v-23.53c-5.22,2.96-8.02,7.25-10.55,11.85-.53.96-1.75,1.99-2.77,2.14-6.24.92-12.52,1.6-18.78,2.35-1.78.21-2.68-.29-2.43-2.41.68-5.64,2.35-10.92,5.99-15.28,3.66-4.38,7.74-8.4,11.69-12.64-6.71.18-12.55,2.62-17.09,7.73-5.72,6.44-7.57,14.39-8.36,22.71-.1,1.01-.75,2.56-1.5,2.82-5.62,1.95-11.33,3.63-17.33,5.5-5.06-12.73,1.18-22.04,8.53-31.15-7.49.27-14.29,5.84-16.56,13.45Zm353.44,110.94c-8.96.71-13.74,7.29-18.16,14-5.41-2.08-10.58-4.05-15.74-6.05-1.81-.7-2.33-1.91-1.35-3.68.48-.87.9-1.79,1.39-2.66,4.19-7.4,10.28-12.59,18.51-15.36-6.49-5.09-17.28-4.12-22.42,1.58-3.66,4.05-6.82,8.71-9.42,13.52-3.09,5.72-2.73,5.9-9.38,5.49-2.11-.13-4.22-.08-6.33-.23-1.47-.11-2.93-.41-4.31-.62,1.17-10.63,6.77-17.99,15.22-23.67-9.05-2.94-20.58.93-25.31,9.74-2.42,4.51-3.81,9.62-5.37,14.55-.73,2.32-1.2,4.19-4.14,4.73-5.11.94-10.14,2.33-15.19,3.62-1.03.26-2.28.64-2.91,1.4-3.36,4.08-6.56,8.3-10.32,13.12,2.77-.82,4.85-1.35,6.87-2.05,19.97-6.92,40.36-10.97,61.66-10.07,11.51.48,22.56,2.62,32.64,8.07,6.82,3.69,13.06,8.47,19.41,12.66.38-7.75-3.11-14.09-10-18.45-2.74-1.73-2.63-3.21-.64-5.14,1.67-1.61,3.27-3.44,5.25-4.56,4.11-2.33,8.44-4.26,12.57-6.3-3.1-2.85-6.5-4.14-12.53-3.66Zm-62.96,166.39c-2.84-3.16-5.96-6.08-9.24-9.35,3.38-6.29,7.35-12.78,15.19-16.91-13.64-3.95-18.16,5.43-23.11,13.78-4.78-1.19-9.44-2.36-14.29-3.57,2.02-9.58,7.3-16.46,16.65-21.12-6.22-.63-10.9.51-15.01,3.82-5.39,4.35-8.38,10.23-10.69,16.56-.34.93-.96,2.25-1.71,2.47-4.22,1.21-8.51,2.14-12.95,3.2-3.67-10.7.25-18.88,8.06-26.67-7.23,1.64-12.12,4.86-14.89,10.85-2.54,5.49-2.38,11.22-.89,16.91.5,1.91.05,2.85-1.61,3.67-2.79,1.37-5.57,2.77-8.23,4.37-2,1.19-2.84.48-3.81-1.35-3.29-6.24-3.74-12.64-1.25-19.43-6.91,3.59-11.09,12.23-1.97,26.46-.46.31-1.05.64-1.55,1.06-2.96,2.51-5.89,5.04-8.95,7.66-1.88-2.2-3.49-4.47-5.49-6.33-2.47-2.3-5.34-2.13-7.43.03-1.99,2.05-1.91,4.58.51,7.08,1.67,1.72,3.61,3.17,5.19,4.53-1.48,1.64-2.96,3.14-4.29,4.75-2.36,2.86-2.42,5.98-.26,8.07,2.53,2.46,5.24,2.47,8.13-.51,2.19-2.26,3.89-4.98,5.81-7.5,2,1.85,3.86,3.94,6.08,5.54,3.32,2.39,6.23,2.16,7.99-.19,1.64-2.19.98-4.91-2.04-7.51-1.82-1.57-3.84-2.9-5.9-4.43.34-.42.57-.8.89-1.07,7.51-6.33,15.5-11.94,24.54-15.86,11.52-5,23.42-7.34,35.96-4.53,7.45,1.67,14.25,4.74,21.14,9.97-.25-2.14.06-3.72-.59-4.45Zm95.24-455.43c0-3.2-.13-5.74.04-8.26.15-2.19-.72-2.98-2.82-3.6-13.09-3.83-26.12-7.83-39.15-11.85-.89-.27-2.17-1.07-2.26-1.76-.29-2.22-.11-4.5-.11-7.12,14.98,4.49,29.38,8.81,44.26,13.28,0-3.31.15-6.17-.1-9-.06-.72-1.26-1.71-2.1-1.95-12.71-3.52-25.46-6.93-38.19-10.36-4.75-1.28-9.51-2.57-14.39-3.88v46.71c18.39,5.53,36.62,11.01,55.13,16.57v-11.17c-1.5-.46-2.97-.94-4.46-1.36-12.69-3.57-25.39-7.11-38.07-10.74-1.01-.29-2.49-1.11-2.61-1.86-.35-2.24-.13-4.56-.13-7.37,15.16,4.63,29.81,9.1,44.97,13.72Zm-449.71,26.53c-.13-.89-.26-1.41-.26-1.93-.2-14.42-.38-28.85-.58-43.27-.02-1.59-.11-2.94,1.98-3.57,16.33-4.97,32.58-10.18,48.95-15.02,6.46-1.91,9.22.48,9.3,7.05.07,5.44.3,10.87.36,16.3.05,4.34-.87,5.46-4.87,6.72-13.43,4.23-26.83,8.54-40.28,12.71-2.18.68-3,1.68-2.86,4,.21,3.54.22,7.12-.06,10.66-.08,1.06-1.16,2.51-2.15,2.95-3.01,1.33-6.19,2.25-9.53,3.41Zm11.64-36.1c0,.56,0,1.11,0,1.67-.01,5.67.18,5.81,5.56,4.12,8.57-2.69,17.13-5.41,25.71-8.08,5.67-1.77,7.43-4.77,6.24-10.77-.67-3.37-2.1-4.26-5.44-3.23-8.79,2.72-17.57,5.49-26.35,8.24-6.82,2.14-5.62,1.78-5.73,8.06Zm113.52-26.76c0,6.53,0,13.06,0,19.59,0,5.94-2.45,9.04-8.26,10.26-11.92,2.52-23.86,4.97-35.79,7.45-2.17.45-4.33.94-6.49,1.38-3.21.65-5.89-1.14-6.1-4.31-.54-7.95-.92-15.91-1.38-23.87-.13-2.2-.46-4.4-.49-6.6-.09-5.7,3.64-10.19,9.24-11.31,13.04-2.6,26.08-5.2,39.11-7.8,5.58-1.11,9.39,1.93,9.42,7.55.01,2.55,0,5.1,0,7.65.25,0,.5,0,.75,0Zm-10.6,8.96c-.08,0-.16,0-.24,0,0-2.88.11-5.77-.03-8.65-.17-3.33-2.36-5.6-5.26-5.11-8.93,1.52-17.86,3.11-26.72,5.02-3.94.85-5.16,2.95-5.12,7.04.05,5.43.15,10.85.36,16.27.13,3.45,1.71,5.06,5.08,4.45,9.36-1.7,18.67-3.63,27.96-5.66,2.62-.57,4.07-2.5,3.99-5.39-.07-2.66-.02-5.32-.02-7.97Zm121.28,9.57c5.21-.04,10.41-.44,15.61-.52,3.28-.05,4.57-1.7,4.6-4.79.06-5,.22-9.99.27-14.99.04-4.15-1.76-5.7-5.95-5.58-10.98.3-21.96.56-32.94.74-3.43.06-5.35-1.79-5.46-4.86-.11-3.2,1.94-5.51,5.29-5.53,6.56-.05,13.11.09,19.67.12,6.39.03,12.78,0,19.13,0v-8.08c-5.47,0-10.68,0-15.89,0-10.23,0-20.46-.03-30.68.02-4.07.02-6.76,1.89-6.87,4.83-.18,5.11-.25,10.22-.2,15.33.03,3.21,2.08,5.12,4.96,5.91,1.99.55,4.15.66,6.24.68,9.56.07,19.12.02,28.68.04,3.23,0,5.19,1.86,5.06,4.76-.14,3.19-2.13,3.92-4.98,3.95-8.88.12-17.75.37-26.62.65-4.16.13-8.31.45-12.51.69v6.65c11.11,0,21.86.06,32.6-.03Zm-99.13,8.07c-.38-14.93-.76-29.87-1.15-45.04,5.5-.72,10.72-1.46,15.96-2.07,9.79-1.15,19.59-2.25,29.4-3.3,5.68-.61,8.49,1.97,8.68,7.71.11,3.32.14,6.66.45,9.96.32,3.39-.63,6.09-3.32,8.21-.59.46-1.02,1.12-1.45,1.59,2.87,5.39,5.65,10.62,8.79,16.52-3.85.4-6.87.78-9.91.95-.48.03-1.14-.84-1.49-1.43-.5-.85-.77-1.83-1.18-2.74-3.61-7.94-5.62-9.16-14.2-8.46-5.62.45-11.23.98-16.85,1.52-4.23.41-5.41,1.74-5.43,5.94,0,1,0,2,0,3,.03,7.51-.25,7.77-8.31,7.66Zm42.74-34.32c0-4.68-2.17-6.98-6.31-6.5-7.69.9-15.37,1.84-23.04,2.83-5.7.73-5.92,1.06-5.56,6.57.09,1.33.01,2.66.04,3.99.06,3.42,1.09,4.32,4.51,3.89,7.88-.99,15.77-1.99,23.65-3.02,4.78-.62,6.72-2.89,6.72-7.76Zm193.49,13.93c-11.47-1.98-22.44-3.88-33.72-5.82,0-5.59.07-10.8-.06-16.01-.03-1-.68-2.64-1.39-2.86-2.24-.69-4.64-.84-7-1.2v45.41c2.84.37,5.43.7,8.48,1.09v-17.51c11.41,2.04,22.38,4,33.6,6,0,5.34-.06,10.44.05,15.53.02.92.57,2.48,1.17,2.64,2.72.72,5.55,1.03,8.69,1.55,0-15.08.02-29.73-.06-44.39,0-.66-.69-1.74-1.27-1.91-2.62-.79-5.33-1.33-8.49-2.08v19.54Zm-95.24-30.43c-6.09-.55-9.28,2.2-9.44,8.13-.26,9.88-.24,19.77-.26,29.66-.01,4.61,1.77,6.13,6.49,6.54,9.8.85,19.58,1.94,29.38,2.87,5.92.56,11.84,1.02,18.12,1.56,0-2.39.24-4.41-.11-6.32-.17-.92-1.39-2.26-2.24-2.34-6.73-.64-13.48-.95-20.22-1.51-6.06-.5-12.12-1.12-18.16-1.84-2.87-.34-4.06-2.11-3.98-5.1.17-6.11.05-12.22.07-18.33.02-3.76,1.5-5.3,5.28-5.13,3.31.15,6.6.58,9.89.95,9.87,1.11,19.74,2.26,29.65,3.39v-8.13c-14.98-1.49-29.73-3.05-44.49-4.38Zm-94.81,141.48c-5.88-5.09-12.69-8.48-20.15-10.64-13.79-4.01-27.83-3.74-41.78-1.75-22.4,3.2-43.76,10.25-64.49,19.19-6.78,2.93-13.43,6.17-20.14,9.27.07.43.14.86.21,1.29.9,0,1.94.29,2.69-.05,7-3.09,13.85-6.54,20.93-9.41,27.03-10.93,54.55-19.77,84.26-18.65,14.32.54,27.57,4.07,38.79,13.52,3.22,2.71,4.98,1.99,6.07-2.64-2.28,2.39-4.22,1.75-6.39-.13Zm269.62-53.73c1.45-3.84-.85-4.84-3.64-5.67-18.03-5.39-36.05-10.83-54.08-16.23-.77-.23-1.61-.23-2.54-.36v4.07c20.13,6.07,40.21,12.13,60.26,18.18Zm-377.67-17.37c9.21-1.87,18.42-3.71,27.61-5.66,5.83-1.24,11.64-2.64,17.44-4,4.62-1.09,8.5-6.75,7.71-10.97-4.7,5.82-5.2,6.14-13.08,7.81-12.51,2.65-25.05,5.19-37.53,7.95-3.81.84-7.26,1.14-10.1-2.31,1.54,5.93,3.99,7.99,7.96,7.18Zm244.99-18.85c-13.24-1.2-26.5-2.28-39.71-3.77-5.19-.59-11.27.8-14.91-5.97.42,6.18,2.81,9.29,6.99,9.73,9.13.95,18.27,1.78,27.41,2.68,8.14.8,16.27,1.62,24.58,2.46.53-4.59.37-4.7-4.36-5.13Zm-117.82-.54c11.19-.24,22.38-.48,33.57-.75,5.65-.14,11.3-.27,16.94-.57,4.2-.23,6.48-3.38,5.92-6.91-2.37.85-4.84,2.4-7.37,2.53-9.73.5-19.48.62-29.22.75-7.16.1-14.32.02-21.64.02v4.67c.74.11,1.28.27,1.81.26Zm83.05,408.9c.69-.13,1.46-.1,2.04-.42,16.02-8.87,33.39-13.67,51.28-16.67,13.65-2.29,27.18-1.83,39.12,6.14,5.08,3.39,9.17,8.24,13.78,12.35.82.73,2.04,1.54,2.97,1.43.77-.09,1.39-1.49,2.08-2.3-2.99.96-4.42-.44-5.94-2.32-10.53-13.11-24.37-19.55-41.05-18.7-20.14,1.03-39.21,6.79-57.48,15.21-2.53,1.17-4.85,2.8-7.26,4.21.15.36.3.72.45,1.08Zm-151.29-257.21c-1.32-.72-2.56-1.73-3.97-2.11-11.56-3.07-23.11-1.83-34.6.43-16.53,3.26-32.16,9.22-47.38,16.32-4.12,1.92-8.23,3.89-12.29,5.93-.51.26-.72,1.11-1.07,1.68.67.08,1.37.3,2,.19.63-.11,1.2-.55,1.79-.85,15.48-7.81,31.4-14.56,48.23-18.89,15.38-3.96,30.86-6.32,46.58-1.64.23-.35.47-.7.7-1.06Zm-.19,58.86c-1.14-.59-2.26-1.65-3.41-1.68-5.43-.11-10.91-.39-16.28.22-16.81,1.9-33.05,6.1-48.28,13.66-7.9,3.92-15.71,8-23.57,12.01.06.35.12.7.18,1.05.77.04,1.66.35,2.28.07,2.11-.96,4.13-2.14,6.18-3.22,13.06-6.86,26.19-13.57,40.69-16.97,13.67-3.21,27.37-6.1,41.56-4.09.22-.34.43-.69.65-1.03Zm58.79-214.12c-2.85.4-5.75.49-8.54,1.13-2.19.51-2.84-.31-3.56-2.16-1.16-2.97-2.46-5.96-4.24-8.57-.92-1.35-3.07-2.75-4.57-2.65-6.92.42-13.8,1.41-20.71,2.08-3.18.31-3.55,1.94-2.49,4.73,5.67-.6,11.36-.87,16.93-1.85,7.89-1.4,10.37-.36,13.84,7.09.92,1.98,1.69,4.04,2.51,6.01,5.27-.58,10.41-1.14,15.72-1.73-.16-3.54-1.96-4.5-4.88-4.08Zm-154.54,18.9c6.11-1.93,12.26-3.76,18.38-5.68,4.57-1.43,6.72-4.7,5.67-7.59-2.04,1.03-4.05,2.37-6.27,3.09-12.5,4.07-25.03,8.06-37.6,11.91-2.85.87-3.85,2.24-2.68,5.49,7.59-2.44,15.03-4.86,22.5-7.22Zm287.07-45.87c.76-3.78.57-4.36-3.25-4.84-12.41-1.57-24.84-3.02-37.28-4.35-4.53-.48-4.65-.17-4.24,3.97,14.99,1.75,29.87,3.49,44.78,5.22Zm-106.31-10.58c-2.04,0-3.73.47-3.66,2.76.07,2.48,2.19,2,3.79,1.99,10.75-.12,21.5-.33,32.25-.39,2.48-.01,4.96.44,7.6.69v-5.02c-13.44,0-26.71.02-39.98-.02Zm62.73,522.74c.69-.26,1.43-.44,2.06-.81,5.29-3.03,10.38-6.44,15.86-9.06,10.26-4.9,21.05-7.47,32.55-5.62,7.89,1.27,14.7,4.75,20.74,9.89,2.7,2.3,3.63,2.09,5.23-1.08.36-.72.5-1.55.92-2.89-3.22,3.99-3.29,4.07-6.86,1.08-8.98-7.49-19.25-10.62-30.89-9.7-13.5,1.06-25.13,6.76-36.11,14.17-1.4.95-2.67,2.09-4,3.14.17.29.33.58.5.87Zm-41.05-503.93c-9.12-.06-18.24-.21-27.35.03-5.57.15-10.39-.72-13.28-6.74-.8,6.33,4.35,11.6,10.11,10.96,5.17-.58,10.41-.49,15.62-.68,6.29-.24,12.58-.48,18.96-.72-.06-3.28-2.33-2.83-4.06-2.85Zm103.65,13.24c8.56,1.44,17.08,3.07,25.75,4.64v-4.7c-9.28-1.6-18.3-3.15-27.8-4.79.04,2.36-1.01,4.32,2.05,4.84ZM193.46,250.64c4.59,4.96,10.16,4.04,15.67,2.33,3.21-1,5.11-4.18,5.18-7.34-3.22,6.8-15.82,8-21.17,2.48-5.85,5.1-16.82,3.93-19.65-2.85,1.38,8.98,9.93,11.27,19.97,5.38Zm248.65,301.49c3.22,4.35,7.24,7.16,13.02,5.43,4.06-1.22,7.42-3.3,8.63-8.79-3.17,4.41-6.7,6.49-11.29,6.86-4.93.4-7.86-2.78-10.74-5.85-9.71,5.7-13.85,4.54-20.61-5.56,1.63,10.31,8.91,13.09,20.98,7.91Zm164.42-435.33c7.41,2.28,14.86,4.46,22.81,6.83-1.67-2.82-39.32-14.96-44.24-14.15,6.81,3.32,14.21,5.1,21.43,7.32ZM218.03,382.92c3.19-1.42,4.26-2.89,4.38-5.62-6.11,6.21-12.65,6.49-20.46.9-8.96,5.5-15.05,6.87-20.28-1.91,1.52,8.68,9.11,11.89,20.46,3.9,4.71,4.88,10.09,5.32,15.9,2.73Zm213.95,249.08c6.31,1.2,9.26-3.41,11.84-8.19,3.87,3.57,7.09,8.17,13.12,6.25,3.42-1.09,5.64-3.58,6.78-7.82-7.12,7.95-9.93,7.83-19.76-.29-6.97,10.21-10.28,10.56-21.19,1.9,1.7,4.73,4.95,7.35,9.21,8.16Zm-239.25-318.82c-3.6.94-6.85,2.66-9.87,2.32-2.87-.33-5.5-2.81-7.76-4.07,1.78,7.2,7.85,8.63,17.5,3.23,2.7,4.17,6.4,6.45,11.5,5.07,3.9-1.06,7.55-2.66,8.76-8.06-6.4,7.38-12.77,7.51-20.13,1.52Zm391.81-184.66c1.07.64,2.06,1.54,3.22,1.88,10.96,3.14,21.95,6.17,32.93,9.25,2.9.81,5.79,1.66,8.69,2.49.11-.36.22-.72.32-1.08-14.8-4.58-29.61-9.16-44.41-13.74-.25.4-.5.8-.75,1.2Zm-393.14,37.67v-4.54c-4.55,1.52-8.71,3.06-12.96,4.27-3.15.89-4.06,2.56-2.82,5.58,5.32-1.79,10.62-3.57,15.79-5.31Zm242.91,330.37c-.51-.34-1.66-.13-2.29.21-5.32,2.91-7.94,2.44-11.63-2.24.53,5.6,5.88,8.45,10.48,5.32,1.87-1.28,2.98-1.29,4.89-.13,5.44,3.32,11.37.96,13.42-5.41-4.39,4.73-9.21,5.94-14.86,2.24Zm125.99-357.58c-3.68-.75-7.35-1.55-11.06-2.08-.61-.09-1.98,1.09-1.98,1.69-.01.88.75,2.39,1.43,2.56,4.29,1.03,8.64,1.75,13.39,2.66-.05-2.1,1.14-4.23-1.78-4.83Zm-215.8,51.49c.48-.1,1.1-.04,1.41-.32,3.38-3.01,7.4-4.37,11.83-4.51,3.3-.11,6.6.08,9.9,0,.6-.01,1.19-.68,1.78-1.04-.44-.5-.85-1.41-1.33-1.45-6.18-.49-12.46-1.08-18.23,1.83-2.2,1.11-3.99,3.03-5.97,4.57l.6.92Zm-14.19-25.1c-12.65,3.92-21.61,12.35-22.8,20.9,1.44-2.1,3.06-4.82,5.03-7.26,4.15-5.14,9.82-8.07,15.81-10.52,1.08-.44,1.92-1.5,2.87-2.27-.3-.28-.6-.57-.9-.85Zm187.16-34.21c-4.03-1.05-8.21-1.57-12.35-2.27v4.66c4.36.6,8.49,1.17,13.79,1.9-.53-1.71-.7-4.1-1.44-4.3Zm-192.3,2.12c-.22-1.5-.42-2.91-.66-4.51-3.48.6-6.51,1.21-9.57,1.63-2.93.4-3.52,1.79-2.1,4.44,4.14-.52,8.05-1.01,12.33-1.55Zm240.85,297.29c.35-.42.72-.84,1.02-1.31,3.88-5.97,9.45-9.48,16.24-11.24.74-.19,1.53-.36,2.15-.77.44-.29.63-.96.93-1.47-.54-.19-1.09-.59-1.61-.55-7.39.49-17.11,8.13-19.36,15.26.42.05.59.12.63.07Zm50.07,2.54c-1.58.33-3.25.45-4.73,1.04-4.68,1.86-9.32,3.81-13.89,5.92-.88.41-1.36,1.69-2.02,2.57.24.21.49.43.73.64,5.14-4.2,11.21-6.01,17.56-7.19,1.1-.2,2.03-1.34,3.04-2.05-.23-.31-.46-.62-.68-.94Zm-311.18-190.65c1.18-.16,2.2-1.5,3.29-2.29-10.89.55-18.68,5.12-21.85,15.68,3.95-7.54,9.89-12.24,18.56-13.39Zm-21.54,72.56c3.33-6.3,8.41-11.01,13.86-15.4,1.27-1.03,2.33-2.32,3.49-3.49-.28-.25-.56-.5-.84-.74-8.17,5.74-15.1,12.51-18,22.55.49-.97.98-1.95,1.48-2.91Zm47.42-61.5c2.77-1.08,5.71-1.7,8.51-2.72.95-.35,1.68-1.28,2.51-1.94-.25-.32-.49-.63-.74-.95-6.99,2.66-14.99,3.25-20.74,10.3,3.99-1.8,7.16-3.4,10.46-4.68Zm-46.69-81.15c.84-.53,1.26-1.72,1.88-2.61-.28-.16-.56-.32-.85-.47-8.33,4.88-14.32,11.62-16.71,21.16,3.31-7.72,8.65-13.6,15.68-18.07Zm-56.25,26.89c2.99-8.72,10.51-13.67,16.75-19.69-5.96.32-16.35,12.8-16.75,19.69Zm278.25,374.23c2.75-2.91,5.15-6.13,8.22-8.48,3-2.3,6.69-3.71,10.56-5.76-6.37-1.39-17.41,7.38-18.79,14.24Zm27.8-146.51c3.6-7.83,9.85-13.12,16.99-17.59-6.48.15-16.3,10.7-16.99,17.59Zm18.24,54.22c.53-.27.65-1.33.96-2.03-8.15,3.48-14.54,8.35-17.33,16.78,3.83-6.74,9.58-11.31,16.38-14.75Zm25.56,16.42c1.06-.52,1.92-1.46,2.86-2.2-9.29,1.48-17.15,6.28-17.08,8.98,4.76-2.26,9.52-4.46,14.21-6.77Zm-48.61,84.17c4.85-3.87,10.28-8.21,16.1-12.84-6.29.65-14.9,8.15-16.1,12.84Zm-5.78-107.34c.47-.33.56-1.18.83-1.8-7.92,4.65-13.11,11.16-15.61,19.69,3.37-7.24,8.22-13.26,14.78-17.89Zm-254.92-231.38c.63-.33.88-1.37,1.3-2.08-7.87,3.19-12.3,9.13-14.65,16.76,3.05-6.17,7.12-11.37,13.34-14.68Zm-15.17,72.8c3.62-4.06,7.85-8.8,12.31-13.8-5.23,1.55-11.77,9.6-12.31,13.8Zm228.17,251.42c2.89-3.51,6.13-7.45,9.36-11.39-4.52,1.75-9.18,8.18-9.36,11.39ZM234.52,248.81c-2.55,3.68-5.1,7.37-7.65,11.05l.71.48c2.68-3.55,5.36-7.09,8.04-10.64l-1.1-.89Zm243.99,244.55c2.62-4.01,5.24-8.03,7.86-12.04-.37-.22-.75-.44-1.12-.66-2.46,4.08-4.93,8.17-7.39,12.25.22.15.43.3.65.45Zm-244.62-181.44c-3.44,2.46-5.11,6.08-6.8,10.68,2.87-3.83,5.22-6.96,7.57-10.1-.25-.19-.51-.38-.76-.57Zm136.04-210.58l-.94-.31c-.38,2.06-4.85,2.65-1.11,6.74.82-2.59,1.44-4.51,2.05-6.44Zm10.19,239.49c-2.94-1.24-5.51-2.99-8.8-.24-2.49,2.08-3.42,1.8-5.58.22.59-.74,1.17-1.48,2.38-3.01h-7.95l-.31-1.24c6.5-4.16,11.03-11.83,20.78-11.22-1.77-1.95-3.55-3.9-5.32-5.85l.4-.77c1.08.22,2.14.51,3.23.64,1.74.21,3.84,1.01,5.16.34,4.86-2.48,9.65-5.22,14.11-8.37,2.83-2,5.02-4.91,8.94-4.22-1.35,1.8-2.98,3.31-3.78,5.18-1.13,2.64.19,4.74,3.07,4.96,2.14.16,4.34-.45,6.52-.69,3.7-.41,7.4-.9,11.11-1.11,1-.06,2.05.76,3.08,1.18-.05.28-.11.57-.16.85-1.16.05-2.33.05-3.49.17-4.2.45-5.33,3.12-3.68,6.86,1.62,3.66,4.86,5.3,7.58,7.66,1.36,1.18,2.49,2.63,3.4,4.32-3.32-.09-5.97-4.64-9.97-.18,5.33,1.72,7.13,5.58,8.26,10.94-3.77-2.4-6.23-6.38-11.51-4.12,3.88,3.36,5.84,7.08,4.93,11.27-2.62-1.03-5.1-2.17-7.7-2.92-.89-.25-2.18.3-3.09.83-3.88,2.28-6.2,9.4-4.9,14.65.91,3.68,4.89,6.94,9.53,7.11,5.77.21,11.59.35,17.31-.23,8.46-.85,16.23-.3,22.11,6.83,1.13,1.37,2.2,1.18,3.27-.14,2.54-3.16,3.95-6.64,1.73-10.43-2.52-4.29-5.36-8.4-8.16-12.52-2.4-3.52-4.3-7.07-2.25-11.43.14-.3.34-.58.56-.82.22-.23.5-.39.77-.59,1.08,2.44,2.15,4.85,3.22,7.25.42.02.84.04,1.26.05.44-1.16,1.2-2.31,1.25-3.49.26-5.7,3.55-8.69,8.56-10.62,2.1-.81,3.87-2.5,6.22-4.07.11,2.33-.83,4.02-2.26,5.74-2.45,2.95-5.08,5.88-6.81,9.24-.64,1.23,1.05,3.66,1.68,5.54,1.35-.63,3.13-.93,3.93-1.97,1.14-1.49,1.55-3.53,2.36-5.54,3.91,5.39-.58,8.11-3.33,11.21,2.95,5.44,3.69,5.73,8.35,3.19,1.14,2.7-.51,4.15-2.35,5.37-.79.52-1.9.52-2.84.84-1.25.43-3.56.45-2.5,2.46.68,1.29,3,2.82,4.15,2.53,1.93-.49,3.51-2.35,5.32-3.69.93,2.9-.86,5.07-2.61,7.28-.76.95-1.4,1.99-2.1,3,1.46.82,2.92,1.65,4.4,2.44.27.15.65.1.99.14-1.21,2.49-3.48,3.38-6.82,2.45-1.59-.44-3.08-1.26-4.65-1.82-4.13-1.48-7.85,1-7.55,5.35.36,5.26-1.59,9.42-4.81,13.37-5.98,7.35-5.92,11.43-.12,19,.34.44.64.9.98,1.34,2.67,3.45,2.21,6.27-.74,9.65-2.73,3.13-4.91,6.74-7.42,10.08-.69.92-1.58,1.78-2.54,2.42-2.68,1.76-5.59,3.19-8.11,5.15-.92.72-1.46,2.59-1.34,3.86.21,2.25-.32,3.36-2.65,3.63-1.18.13-2.3.83-3.48,1.01-.91.14-1.89-.12-2.84-.2.1-.92-.11-2.07.36-2.73,3.7-5.21,6.86-10.83,12.08-14.86,4.65-3.59,6.18-9.09,7.67-14.41.26-.94-1.05-2.84-2.12-3.54-3.73-2.43-7.68-4.53-12.31-7.19-1.53.61-2.79,2.71-1.94,5.29,1.6,4.87-1.08,7.13-4.71,9.2-6.65,3.79-13.25,7.68-19.86,11.55-1.92,1.12-3.46,2.44-2.67,5.07.14.45-.29,1.48-.68,1.62-2.21.76-4.48,1.33-7.04,1.48,1.71-4.32,3.58-8.3,7.39-10.74,6.45-4.13,12.75-8.28,17.56-14.52,2.01-2.6,2.03-4.35.31-6.67-.13-.18-.29-.33-.45-.49-3.56-3.72-6.25-7.67-2.85-13.47-2.04-.4-3.59-.92-5.16-.98-3.66-.13-7.34-.16-11-.02-6.16.23-11.27-2.19-15.69-6.17-1.35-1.22-2.38-1.62-3.66-.39-5.27,5.06-11.17,3.49-17.12,1.75-1.69-.5-3.4-1.09-5.14-1.23-3.79-.32-5.57,1.23-5.47,5.14.12,4.81.64,9.62,1.1,14.42.12,1.25.3,2.73,1.03,3.64,1.03,1.29,2.38,2.54,4.51,1.62.76-.33,1.86.13,2.8.23.21.3.41.61.62.91-1.73,2.01-3.4,4.09-5.27,5.96-.28.28-1.77-.23-2.34-.77-1.88-1.78-3.78-3.59-5.3-5.66-.92-1.25-1.51-2.98-1.64-4.55-.6-7.27-.99-14.56-1.44-21.84-.16-2.51.84-3.83,3.54-4.19,3.72-.49,7.4-1.33,11.05-2.23.98-.24,2.61-1.62,2.51-1.85-.58-1.31-1.5-3.36-2.46-3.46-4.58-.44-5.26-3.6-6.58-7.12-1.39-3.72-4.13-6.94-6.46-10.67-5.18,3.54-7.32,8.34-9.46,13.18-.92,2.09-1.92,4.19-3.17,6.09-1.13,1.72-1.96,3.22-.35,5.04,1.32,1.5.95,2.52-.87,3.27-1.32.55-2.51,1.39-3.84,1.93-.65.26-1.67.41-2.15.08-.46-.32-.66-1.37-.56-2.03.14-.96.6-1.88,1.01-2.79,1.81-4.1,3.65-8.19,5.47-12.28.36-.81.55-1.72,1.02-2.45,2.94-4.55,5.74-9.21,8.98-13.54,3.19-4.26,6.08-3.78,8.2,1.23,1.15,2.72,2.77,4.65,5.44,5.94,2.17,1.05,3.25.44,4.09-1.64,1.32-3.29,2.36-6.79,4.28-9.7,1.9-2.89,4.75-5.16,7.18-7.7.75-.78,1.72-1.44,2.21-2.36,1.04-1.91,1.82-3.95,2.96-6.48Zm25.97-1.8c-.58-3.06-1.03-7.36-2.25-11.43-1.06-3.54-3.75-6-7.55-6.74-.79-.15-1.95.24-2.52.8-.31.3.13,1.55.44,2.29,1.3,3.09,3.3,6.03,3.89,9.23.9,4.96.76,10.1,1.27,15.15.14,1.33,1.06,2.58,1.62,3.86,1.34-1.12,3.4-2,3.86-3.4.86-2.67.8-5.64,1.26-9.76Zm54.14-48.09c1.15,1.81,2.22,3.48,3.39,5.31-.77.68-1.49,1.3-2.51,2.19-1.27-1.75-2.28-3.45-3.6-4.86-.86-.93-2.17-1.44-3.28-2.14-.38,1.15-.8,2.3-1.13,3.47-.14.52-.1,1.08-.17,1.89h-3.3v-21.74c3.62.37,7.22.49,10.7,1.18,2.78.55,4.16,2.92,4.49,5.61.36,2.91.26,5.82-2.61,7.71-.62.41-1.23.85-1.99,1.37Zm-6.83-11.95v8.92c6.29-.07,8.45-1.38,8.16-4.74-.29-3.35-2.86-4.7-8.16-4.18Zm-24.68,18.01c2.89-8.13,5.6-15.74,8.66-24.36,3.16,8.49,6.01,16.15,8.92,23.99-1,.47-1.85.87-3.01,1.41-1.02-5.13-4.92-3.65-7.96-3.48-1.3.08-2.51,1.7-3.77,2.62.11.3.21.59.32.89-.98-.33-1.95-.67-3.16-1.08Zm9.14-12.77c-.26,0-.51.01-.77.02-.75,2.09-1.51,4.18-2.34,6.49h5.56c-.91-2.4-1.68-4.45-2.46-6.51Zm-16.37,8.27c-.96,1.33-2.16,3.38-3.32,3.42-1.24.04-3.45-1.75-3.65-3-.55-3.39-.57-6.95-.18-10.37.23-2.01,2.05-3.87,4.36-2.93,2.28.92,2.9-.18,3.77-1.64-4.17-3.32-8.94-2.36-11.04,2.32-2.41,5.36-2.26,10.75.7,15.93,1.42,2.47,3.77,3.86,6.4,3.14,2.01-.54,4.52-1.93,5.34-3.64,1.34-2.84,1.5-6.24,2.23-9.77h-7.14v3.23c1.08.15,1.95.27,3.21.44-.26,1.21-.21,2.23-.68,2.88Zm-46.98-.38c-.03,3.11-1.53,4.58-4.39,4.55-3.07-.02-3.94-1.8-3.89-4.56.08-4.51.02-9.03.02-13.64h-3.58c0,5.14-.15,10.02.05,14.89.16,3.94,2.93,6.52,6.83,6.87,3.77.34,7.77-1.88,8.07-5.38.47-5.45.12-10.96.12-16.55h-3.21c0,4.77.04,9.29-.01,13.82Zm-43.59,4.95c.76.62,1.47,1.34,2.3,1.86,3.3,2.05,8.11,1.45,10.74-1.27,2.15-2.23,2.7-5.78.43-8.14-1.61-1.68-4.17-2.83-6.5-3.35-2.35-.52-3.95-1.26-3.54-3.73.45-2.74,2.75-2.91,4.94-2.48,2.89.58,2.87.67,5.14-2.08-3.01-.53-5.5-1.3-7.98-1.31-3.13,0-5.43,2.49-5.71,5.45-.33,3.42,1.19,6.05,4.26,7.04,1.56.5,3.4.39,4.79,1.15,1.07.58,2.18,2.04,2.26,3.18.06.9-1.24,2.34-2.26,2.75-1.2.48-2.75.17-4.15.09-1.49-.09-2.98-.31-4.47-.47-.08.44-.17.88-.25,1.32Zm18.87-17.73c.47.99,1.57,1.89,1.6,2.85.16,5.04.08,10.09.08,15.11,3.29.05,3.35.05,3.37-2.43.04-4.31-.05-8.63.05-12.94.02-.84.57-1.69.99-2.48.54-1,1.2-1.93,2.18-3.46h-9.5c.49,1.35.78,2.39,1.24,3.35Zm52.99,15.42c-.1-4.33-.06-8.66.01-12.99.01-.77.39-1.59.79-2.27.6-1.03,1.36-1.95,2.41-3.42h-9.46c.46,1.33.67,3.05,1.14,3.12,2.23.35,1.81,1.87,1.81,3.25.01,4.87,0,9.74,0,14.71,2.79.86,3.35-.26,3.3-2.4Zm-19.79-15.65c2.92.41,1.86,2.59,1.9,4.1.12,3.87.11,7.75.02,11.62-.06,2.4.71,3.32,3.3,2.12,0-4.88-.04-9.85.04-14.81.01-.88.35-2.43.78-2.51,2.78-.57,1.6-2.2,1.42-3.76h-8.1c.25,1.34.32,3.19.65,3.24Zm86.88-.04c2.74.61,1.82,2.7,1.86,4.27.11,3.88.14,7.77.02,11.65-.07,2.41.93,2.9,3.32,2.11,0-4.94-.04-9.9.03-14.87.01-.9.32-1.88.78-2.66.59-1.03,1.46-1.89,2.21-2.83-.26-.25-.52-.51-.79-.76h-7.9c.16,1.19.11,3.02.46,3.09ZM194.38,122.32c-3.17.91-3.85,2.36-2.84,5.48,10.6-3.34,21.18-6.68,31.92-10.07-.25-1.47-.44-2.63-.73-4.34-9.77,3.11-18.99,6.24-28.35,8.93Zm93.85-19.43c.13-4.27-.25-4.63-4.64-3.82-7.39,1.36-14.79,2.71-22.17,4.09-3.76.7-4.87,2.28-4.38,5.43,10.35-1.89,20.72-3.79,31.2-5.7Zm64.93-9.28c.37-3.94-.53-4.84-4.44-4.3-3.61.49-7.23.94-10.84,1.41-4.55.59-9.1,1.19-13.74,1.8.08,1.73.13,2.91.2,4.33,9.79-1.1,19.28-2.17,28.82-3.24Z"/>
</svg>