<?xml version="1.0" encoding="UTF-8"?>
<svg id="Capa_1" data-name="Capa 1" xmlns="http://www.w3.org/2000/svg" xmlns:xlink="http://www.w3.org/1999/xlink" viewBox="0 0 807 746">
  <defs>
    <style>
      .cls-1 {
        fill: url(#Degradado_sin_nombre_16);
      }
    </style>
    <linearGradient id="Degradado_sin_nombre_16" data-name="Degradado sin nombre 16" x1="61" y1="373" x2="746" y2="373" gradientUnits="userSpaceOnUse">
      <stop offset=".02" stop-color="#878787"/>
      <stop offset=".24" stop-color="#6e6e6e"/>
      <stop offset=".38" stop-color="#b1b1b1"/>
      <stop offset=".47" stop-color="#d7d7d7"/>
      <stop offset=".76" stop-color="#848484"/>
      <stop offset="1" stop-color="#000"/>
    </linearGradient>
  </defs>
  <path class="cls-1" d="m552.33,375.33c-49.79,33.72-98.96,33.84-148.78.26-48.96,33.41-98.5,33.84-148.79-.24-16.6,12.12-35.27,20.71-56.35,23.8-53.26,7.8-104.52-20.04-126.9-69.18-21.7-47.64-8.98-105.61,30.61-139.53,41.05-35.17,99.69-39.37,144.07-9.63,6.86,4.6,10.96,4.14,17.72-.03,43.55-26.84,87.55-26.77,131.04.22,6.37,3.96,10.37,4.2,16.93.14,44.26-27.45,88.81-27.2,132.88.62,5.17,3.26,8.52,4.11,14.1.39,52.1-34.73,118.16-25.79,158.79,21.09,38.49,44.41,37.68,112.56-1.88,157.2-40.19,45.36-107.19,53.07-158.53,18.25-1.48-1-2.95-2.02-4.93-3.36ZM234.56,206.5c-36.74-28.65-91.86-22.47-123.2,13.36-32.17,36.78-30.4,91.73,4.07,126.19,32.38,32.38,87.85,36.49,118.8,8.71-33.06-49.15-33.41-98.38.34-148.27Zm338,.18c33.68,49.94,33.21,99.16.2,148.22,32.61,27.94,87.63,23.31,119.72-9.85,34.33-35.48,35.01-90.65,1.56-127-31.64-34.39-87.3-39.75-121.48-11.37Zm-297.05-.22c33.58,49.84,33.18,99.17.32,148.26,26.42,24.41,78.19,24.47,107.04.2-33.49-49.38-33.37-99.02,0-148.3-28.79-23.89-77.37-24.02-107.35-.15Zm148.58.08c33.64,50.14,33.2,99.64-.12,148.68,32.18,24.07,83.18,23.56,107.15-.68-33.18-49.44-32.99-99.03.31-148.14-30.19-23.77-77.92-23.66-107.34.15Zm-168.77,21.02c-24.55,24.97-24.33,86.05.39,106,23.26-29.79,23.09-76.6-.39-106Zm297.27,106.64c23.53-32.43,23-80.43-.65-106.57-23.88,27.69-23.83,80.92.65,106.57Zm-149.03-106.1c-24.22,25.74-24,82.84.4,105.5,23.51-28.38,23.31-79.57-.4-105.5Zm-262.72,353.85c25-37.54,48.6-72.97,72.62-109.04-3.46-4.41-6.93-8.82-12.05-15.36,15.94,0,29.97-.09,43.99.13,1.39.02,3.16,1.62,4.05,2.95,26.51,39.61,52.92,79.28,80.81,121.14-14.93,0-27.93.57-40.81-.43-2.96-.23-6.43-5.41-8.07-9.03-4.12-9.12-10.5-11.79-20.33-11.36-18.62.81-37.32.62-55.96.04-7.48-.23-12.38,1.92-15,8.81-3.9,10.25-11.15,13.59-21.89,12.33-8.1-.95-16.39-.19-27.35-.19Zm93.64-85.74c-8.33,13.82-16.11,26.74-24.18,40.13h48.7c-8.45-13.84-16.21-26.54-24.51-40.13Zm294.5-5.03c-9.93-11.27-18.85-21.41-29.58-33.6,15,0,27.67-.18,40.33.19,2.04.06,4.5,2.18,5.93,4.01,11.95,15.27,24.58,30.1,35.32,46.19,19.34,28.98,8.9,59.32-23.95,70.7-26,9.01-52.33,8.63-78.08-1.24-18.49-7.09-30.17-23.42-29.95-40.9.25-20.04,11.31-32.59,28.97-40.19,15.86-6.83,32.3-8.99,51.02-5.16Zm-10.77,71.53c8.72-2.39,16.45-3.23,22.92-6.53,17.41-8.87,17.98-27.82,1.75-38.63-13.26-8.84-36.31-7.85-48.68,2.08-12.05,9.67-12.55,25.04.18,33.6,7.08,4.76,16.17,6.55,23.83,9.48Zm-194.77-16.8c.1,16.81,8.9,28.07,24.09,33.5,21.58,7.71,43.78,7.71,65.6.77,12.61-4.01,23.6-12.03,24.69-25.79,1.59-20.19.41-40.59.41-61.49h-35.2c0,16.75.35,32.85-.11,48.94-.37,12.84-6.94,18.95-19.52,19.6-15.54.8-22.92-5.66-23.26-21.21-.34-15.66-.07-31.32-.07-47.39h-36.65c0,18.09-.08,35.59.02,53.09Zm314.04-54.17h-36.8c0,27.82-.02,54.98.04,82.14,0,2.41.61,4.81.99,7.61h35.76v-89.75Z"/>
</svg>